<?xml version="1.0" standalone="no"?><!DOCTYPE svg PUBLIC "-//W3C//DTD SVG 1.1//EN" "http://www.w3.org/Graphics/SVG/1.1/DTD/svg11.dtd"><svg t="1628242787064" class="icon" viewBox="0 0 1024 1024" version="1.1" xmlns="http://www.w3.org/2000/svg" p-id="2475" xmlns:xlink="http://www.w3.org/1999/xlink" width="200" height="200"><defs><style type="text/css"></style></defs><path d="M278.36173275 829.45662s-203.6740214-42.25372918-222.86770885-165.28664652-19.19368743-196.07939687 30.79275035-253.6604592 103.8392299-69.18012524 103.8392299-69.18012524 119.16656302-99.97287558 169.15300083-96.10652128c28.72148912-13.67032415 150.37356563-43.22031776 196.4936491-13.67032415 51.22919453 5.10911105 93.48292371-7.7327086 123.03291733 5.10911105 29.41190953 12.84181965 66.55652767 30.79275037 87.13105595 44.87732674 20.43644418 14.08457639 111.43385442 28.1691528 153.68758361 116.54296547 37.14461813 28.1691528 53.8527921 83.26470163 58.96190313 132.00838268 5.10911105 48.74368105-6.35186779 73.04647954-34.52102057 93.48292373-28.1691528 20.43644418-483.0181199 116.54296547-513.67278617 156.31118116-31.06891852 39.63013162-107.70558419 78.70792691-152.03057461 49.57218556z" fill="#FFD564" p-id="2476"></path><path d="M482.58809047 702.41926427c-30.79275037 39.7682157-107.42941603 78.846011-151.75440646 49.57218554 0 0-203.6740214-42.25372918-222.86770883-165.28664651-13.11798782-83.67895387-17.26051028-144.29786602-2.76168165-192.62729482-6.35186779 5.93761554-12.70373557 12.42756741-18.91751928 19.60793969-49.98643779 57.7191464-49.98643779 130.62754187-30.79275035 253.6604592 19.19368743 123.03291733 222.86770883 165.28664652 222.86770885 165.2866465 44.32499042 29.13574137 120.9616561-9.94205392 151.75440645-49.57218553 30.79275037-39.7682157 485.50363339-135.73665291 513.67278617-156.31118117 24.02663031-17.53667845 35.9018614-37.83503855 35.76377731-73.59881587-88.09764451 29.96424587-468.9335435 113.09086341-496.96461221 149.26889297z" fill="#FBB334" p-id="2477"></path><path d="M825.45086683 430.11745397s-399.75341827 106.32474337-470.17630025 153.6875836-151.20207013 79.39834732-155.06842443 140.84576395c-3.86635431 61.44741663 10.90864251 71.80372281 46.12008348 98.59203477 50.40069004 38.38737488 121.51399243 31.2070026 159.349031-1.24275674 89.75465349-77.18900202 432.47934578-161.42029221 483.70854031-172.88127104 51.22919453-11.46097883 101.21563233-21.817285 96.10652128-85.8882992-4.97102697-63.9329301-45.98199941-148.57847257-160.03945139-133.11305534z" fill="#FBE398" p-id="2478"></path><path d="M257.23486815 686.95384706c-7.04228819 13.11798782-14.22266047 26.51214381-17.26051028 41.01097243-3.1759339 14.49882864-1.79509307 30.79275037 6.9042041 42.80606552 8.42312903 11.87523108 22.64578949 18.22709886 36.31611365 23.19812582 29.27382545 10.63247434 61.7235848 17.67476253 91.54974658 8.83738127 11.87523108-3.45210207 22.78387358-9.3897176 33.554432-15.32733313 63.10442562-35.07335691 125.10417857-77.87942242 196.76981727-87.4072241 19.46985561-2.62359757 39.49204754-2.76168163 58.68573498-6.90420411 17.53667845-3.86635431 34.24485242-11.18481067 51.5053627-16.29392172 27.20256421-8.14696086 55.78596925-10.77055842 83.26470163-18.08901478 42.80606551-11.46097883 81.8838608-33.69251609 120.40931977-55.78596925 7.7327086-4.41869063 15.74158539-9.11354943 20.98878051-16.4320058 6.62803595-9.25163351 7.7327086-21.12686459 7.45654044-32.44975934-0.27616816-14.63691274-2.48551348-29.82616178-10.49439025-42.1156451-11.87523108-18.22709886-34.3829365-26.78831197-56.06213741-28.72148913-21.67920092-1.93317715-43.35840185 1.79509307-65.17568686 2.34742942-13.39415599 0.41425225-26.92639605-0.41425225-40.04438386 2.62359754-31.34508668 7.31845635-57.44297824 36.45419773-89.34040126 33.00209569-5.93761554-0.69042042-11.59906291-2.3474294-17.53667844-2.89976573-15.74158539-1.38084082-30.79275037 6.2137837-45.15349491 12.97990373-108.25792053 50.53877413-233.36209909 62.82825745-334.30156326 126.89927164-9.11354943 5.79953147-18.08901478 12.01331517-26.37405972 18.91751927" fill="#FA8E02" p-id="2479"></path><path d="M304.87387653 802.66830802c-13.67032415-4.97102697-27.75490053-11.32289475-36.31611363-23.19812582-8.69929718-12.15139925-9.94205392-28.30723687-6.90420412-42.80606551 3.1759339-14.49882864 10.21822208-27.89298463 17.26051029-41.01097245l5.38527922-9.94205392c8.28504494-6.90420412 17.26051028-13.11798782 26.37405971-18.91751929 100.93946416-63.9329301 226.04364273-76.22241343 334.30156325-126.89927162 14.36074457-6.76612003 29.41190953-14.22266047 45.15349492-12.97990376 5.93761554 0.55233633 11.59906291 2.3474294 17.53667846 2.89976574 32.03550709 3.45210207 58.13339866-25.54555523 89.34040124-33.00209567 12.97990373-3.0378498 26.65022788-2.20934532 40.04438388-2.62359756 21.67920092-0.55233633 43.49648592-4.28060655 65.17568684-2.3474294 2.76168163 0.27616816 5.3852792 0.55233633 8.14696086 0.96658856-9.3897176-4.14252247-19.74602377-6.48995186-29.96424587-7.45654043-21.67920092-1.93317715-43.35840185 1.79509307-65.17568683 2.3474294-13.39415599 0.41425225-26.92639605-0.41425225-40.04438388 2.62359756-31.34508668 7.31845635-57.44297824 36.45419773-89.34040125 33.00209567-5.93761554-0.69042042-11.59906291-2.3474294-17.53667845-2.89976573-15.74158539-1.38084082-30.79275037 6.2137837-45.15349492 12.97990375-108.25792053 50.53877413-233.36209909 62.82825745-334.30156325 126.89927163-9.11354943 5.79953147-18.08901478 12.01331517-26.37405974 18.91751927l-5.3852792 9.94205392c-7.04228819 13.11798782-14.22266047 26.51214381-17.26051028 41.01097245s-1.79509307 30.79275037 6.90420412 42.80606551c8.42312903 11.87523108 22.64578949 18.22709886 36.31611364 23.19812584 8.83738127 3.1759339 17.9509307 6.07569962 27.20256421 8.28504493-1.79509307-0.41425225-3.59018613-1.10467265-5.38527922-1.79509307z" fill="#FA7D04" p-id="2480"></path><path d="M763.17494572 567.37303177c17.9509307-20.57452827 46.39625165-31.48317076 73.46073177-28.0310687-2.76168163 3.59018613-6.76612003 6.2137837-11.18481066 7.31845635-4.55677472 1.10467265-9.66588576 0.69042042-13.94649231 2.89976574-6.62803595 3.45210207-9.25163351 12.42756741-16.15583763 15.18924905-4.83294288 1.93317715-10.63247434 0.27616816-15.18924905 2.89976573-3.45210207 1.93317715-5.5233633 6.2137837-9.3897176 7.31845637-4.55677472 1.24275675-11.04672658-1.93317715-13.39415599 2.20934532M321.16779825 659.61319876c-6.48995186 0.55233633-13.80840823 1.65700898-17.26051028 7.0422882-1.93317715 3.0378498-2.20934532 6.76612003-2.20934531 10.35630617-0.13808409 4.97102697 0.13808409 10.21822208 2.76168164 14.36074456 4.00443838 6.07569962 12.15139925 7.87079269 19.33177152 7.87079268 7.31845635 0 14.7749968-1.24275675 21.67920093 1.10467266 4.55677472 1.51892491 8.5612131 4.41869063 13.11798782 5.93761555 4.55677472 1.51892491 10.49439025 0.96658859 13.11798781-3.03784983 2.76168163-4.14252247 0.55233633-10.08013802-3.31401798-13.25607188s-8.97546534-4.28060655-13.67032415-5.66144738c-4.83294288-1.38084082-9.80396985-3.31401797-12.56565149-7.45654045-3.1759339-4.69485881-2.76168163-11.18481067 0.13808409-16.01775355s8.00887677-8.00887677 13.39415598-9.80396985c1.24275675-0.41425225 2.62359757-0.8285045 3.45210206-1.93317713 1.24275675-1.79509307 0-4.41869063-1.93317716-5.38527922-1.93317715-0.96658859-4.28060655-0.69042042-6.48995187-0.55233633-8.83738127 0.96658859-17.67476253 2.07126124-25.68363929 5.93761555-6.07569962 2.89976573-11.18481067 7.18037229-16.29392172 11.46097881-4.28060655 3.59018613-8.97546534 8.97546534-6.48995188 13.94649233M571.51423947 661.13212365c6.07569962-5.5233633 12.97990373-10.08013802 18.36518295-16.43200578 5.3852792-6.2137837 8.83738127-14.7749968 6.48995186-22.64578951 5.3852792-1.10467265 10.77055842-2.3474294 16.15583763-3.45210204 1.38084082-0.27616816 3.1759339-0.55233633 4.0044384 0.55233632 0.69042042 0.8285045 0.55233633 2.07126124 1.10467266 3.03784981 1.65700898 2.76168163 5.66144737 0.27616816 8.00887676-1.93317715 4.69485881-4.41869063 11.04672658-6.90420412 17.53667847-6.90420411 0.8285045 0 1.65700898 0 2.48551347 0.41425223 2.48551348 1.24275675 1.79509307 5.3852792-0.41425226 7.18037229s-5.24719513 2.20934532-7.73270859 3.72827022c-7.31845635 4.28060655-7.59462453 14.63691274-12.28948333 21.67920092-4.14252247 6.2137837-11.46097883 9.25163351-18.36518296 11.87523108-9.25163351 3.59018613-18.64135111 7.04228819-28.03106869 10.21822209-1.38084082 0.41425225-3.0378498 0.96658859-4.14252247 0-0.96658859-0.8285045-0.96658859-2.20934532-0.96658857-3.45210205v-9.38971761c1.24275675-0.13808409 2.48551348-0.13808409 3.72827022-0.27616816M800.18147977 616.39288099c19.05560336-3.72827022 36.7303659-13.9464923 49.57218555-28.58340504 5.79953147-6.62803595 12.56565149-15.05116498 21.40303276-13.67032414 3.45210207 0.55233633 6.48995186 2.62359757 9.80396983 3.72827022 12.84181965 4.14252247 25.40747114-7.7327086 38.80162714-8.56121311 0.55233633 10.90864251-10.35630617 18.64135111-20.16027603 23.474294-15.32733314 7.59462453-31.48317076 13.9464923-44.73924267 24.57896665-2.76168163 2.20934532-5.3852792 4.55677472-8.69929717 5.5233633-1.38084082 0.41425225-2.89976573 0.55233633-4.28060655 0.69042041l-33.14017976 2.89976572c-1.79509307 0.13808409-3.59018613 0.27616816-5.24719512-0.41425224-4.97102697-2.20934532-3.45210207-9.66588576-0.96658858-14.63691273M381.78671038 795.34985165c6.62803595-27.20256421 16.98434213-53.57662394 31.06891853-77.87942241 4.69485881-8.28504494 10.21822208-16.70817396 18.6413511-21.26494867 8.42312903-4.55677472 20.43644418-3.86635431 25.8217234 3.8663543 0.96658859 1.24275675 1.65700898 2.76168163 3.03784981 3.59018614 2.89976573 1.65700898 6.48995186-0.69042042 9.25163351-2.89976574 2.62359757-2.07126124 6.90420412-4.00443838 9.25163352-1.38084081 0.8285045 0.96658859 1.24275675 2.3474294 1.24275673 3.72827023 0.41425225 7.04228819-4.55677472 13.39415599-10.21822208 17.67476252s-12.28948332 7.18037229-17.67476255 11.737147c-6.62803595 5.66144737-11.18481067 13.39415599-16.98434211 19.88410787-9.25163351 10.21822208-21.95536909 17.53667845-28.44532096 29.68807768-1.24275675 2.20934532-2.20934532 4.69485881-4.14252246 6.35186779-1.65700898 1.51892491-3.86635431 2.3474294-6.07569962 3.0378498-5.93761554 2.07126124-11.737147 4.14252247-17.67476255 6.2137837M740.25298805 514.90108051c-9.52780169 6.07569962-16.01775355 16.57008987-17.26051029 27.89298462-0.27616816 2.07126124 0 4.55677472 1.79509307 5.66144738 1.10467265 0.55233633 2.48551348 0.41425225 3.72827022 0.27616815 4.97102697-0.96658859 9.66588576-2.76168163 13.94649232-5.24719513 1.51892491-0.8285045 3.1759339-1.93317715 4.83294288-1.38084082 1.10467265 0.41425225 1.93317715 1.38084082 3.03784982 1.79509308 3.1759339 1.24275675 5.66144737-2.76168163 6.9042041-5.79953147 4.69485881-11.59906291 11.87523108-22.09345317 20.85069643-30.79275035-2.89976573-6.2137837-11.32289475-7.59462453-17.9509307-5.52336328-6.48995186 2.07126124-12.01331517 6.35186779-18.22709887 9.11354942-4.41869063 1.79509307-9.11354943 2.89976573-13.11798781 5.52336329-3.86635431 2.62359757-6.76612003 7.87079269-4.83294288 12.15139925M610.73011885 548.17934434c-17.53667845 3.59018613-23.61237808 25.26938706-37.00653405 37.00653405-9.66588576 8.5612131-23.19812583 11.59906291-36.17802957 11.59906292-12.97990373 0-25.68363931-2.48551348-38.66354305-3.72827022-8.28504494-0.8285045-17.26051028-0.8285045-23.88854625 4.14252246-7.7327086 5.66144737-9.94205392 16.15583763-16.15583763 23.33620992-6.90420412 8.14696086-18.36518295 11.59906291-28.99765728 11.32289474-10.77055842-0.27616816-21.12686459-3.72827022-31.34508667-7.04228819 13.39415599-23.33620992 44.04882225-28.58340503 70.56096605-33.69251609 45.01541083-8.69929718 88.78806492-24.1647144 129.38478513-45.70583125 0 6.2137837-4.00443838 12.28948332-9.80396984 14.77499681" fill="#FA7D04" p-id="2481"></path><path d="M388.82899858 703.80010509c-4.83294288 3.45210207-8.5612131 8.42312903-10.49439025 13.94649231-1.79509307 5.3852792-1.38084082 12.28948332 3.45210205 15.18924906 5.10911105 2.89976573 11.32289475-0.55233633 16.15583763-3.8663543 5.93761554-4.00443838 11.737147-8.00887677 17.67476254-12.01331517 4.41869063-3.0378498 9.3897176-7.31845635 8.5612131-12.70373556-1.24275675-6.62803595-10.08013802-8.00887677-16.57008987-6.62803595-8.83738127 1.65700898-17.26051028 5.3852792-24.44088258 10.77055841-0.13808409 1.10467265-0.41425225 2.20934532-0.55233632 3.31401798M640.14202838 597.88961397c-8.69929718-1.24275675-17.67476253 6.07569962-18.36518295 14.91308088-0.13808409 1.51892491 0 3.1759339 0.96658859 4.41869064 2.62359757 3.72827022 8.28504494 1.65700898 12.4275674-0.27616816 6.35186779-2.89976573 13.2560719-4.41869063 20.29836009-4.14252248 7.04228819 0.13808409 14.08457639 1.93317715 21.12686459 0.96658857 7.04228819-0.96658859 14.22266047-5.93761554 14.49882865-12.97990371 0-0.96658859-0.13808409-1.93317715-0.55233633-2.76168167-1.24275675-1.93317715-4.00443838-1.79509307-6.2137837-1.65700899-5.24719513 0.41425225-10.63247434 0.27616816-16.01775355-0.27616816-6.07569962-0.69042042-12.28948332-2.20934532-18.36518295-1.65700898-6.07569962 0.55233633-12.56565149 3.45210207-15.18924905 8.97546534M747.84761259 611.6980222c-4.14252247 0.41425225-5.79953147 6.48995186-3.31401799 9.94205392 2.48551348 3.45210207 7.18037229 4.41869063 11.46097883 3.86635431 4.14252247-0.41425225 8.14696086-2.07126124 12.28948332-2.62359756 3.31401797-0.55233633 6.76612003-0.27616816 10.08013801-1.10467267 10.49439025-2.3474294 17.26051028-12.97990373 27.3406483-16.84625804 3.59018613-1.38084082 7.59462453-1.79509307 11.18481067-3.31401797 4.41869063-1.93317715 7.87079269-5.3852792 11.46097884-8.69929719 14.08457639-12.42756741 31.89742302-20.57452827 50.53877411-23.06004175 3.0378498-2.89976573 0-8.5612131-4.14252247-9.52780167-4.14252247-0.96658859-8.28504494 0.96658859-12.28948332 2.34742941-12.97990373 4.69485881-27.3406483 4.55677472-40.18246795 9.52780167-11.46097883 4.41869063-20.98878051 12.70373557-31.06891852 19.60793968-13.80840823 9.52780169-28.85957319 16.98434213-44.73924267 22.09345317M526.08457639 619.43073081c-5.79953147 4.00443838-10.21822208 9.80396985-12.42756741 16.43200578-0.69042042 2.07126124-0.96658859 4.69485881 0.69042042 6.07569963 1.10467265 0.96658859 2.76168163 0.8285045 4.14252246 0.69042042 13.9464923-1.24275675 27.3406483-7.04228819 37.83503856-16.15583764 4.00443838-3.45210207 7.59462453-7.45654045 11.18481067-11.46097883 5.79953147-6.35186779 11.46097883-12.70373557 17.26051028-19.05560336-8.14696086-0.8285045-16.57008987 0-24.44088257 2.3474294-14.49882864 4.28060655-27.47873238 13.67032415-36.17802955 25.95980748M556.46307451 655.19450812c-4.83294288 3.72827022-8.83738127 8.28504494-11.73714701 13.67032415-1.65700898 3.0378498-3.0378498 6.35186779-2.62359757 9.80396984 0.41425225 3.45210207 2.89976573 6.76612003 6.3518678 7.18037228 3.72827022 0.41425225 6.90420412-2.76168163 9.38971759-5.66144736 5.79953147-6.90420412 12.15139925-15.05116498 10.63247434-24.02663033-3.31401797-1.38084082-6.76612003-2.76168163-10.35630617-2.76168164-3.59018613 0-7.45654045 1.65700898-8.97546536 4.97102696" fill="#F7C920" p-id="2482"></path><path d="M186.53581802 623.15900104c-7.18037229 6.76612003 53.71470801-52.47195126 91.54974657-74.42732038 37.83503855-21.95536909 113.50511565-64.7614346 146.92146356-62.69017336 27.20256421-10.08013802 171.50043022-111.15768625 235.98569665-90.72124208 38.38737488-25.8217234 117.92380628-49.84835372 139.18875497-53.43853985 0 0-123.44716958 25.26938706-134.49389616 38.52545897-19.19368743-1.38084082-104.80581847 10.63247434-238.88546239 93.06867147-42.80606551 9.3897176-109.63876134 25.54555523-240.2663032 149.68314523zM116.94144053 482.31323707c-5.79953147 5.5233633 43.22031776-42.25372918 73.73689994-59.92849172 30.5165822-17.67476253 91.41166249-52.05769902 118.19997446-50.53877411 21.95536909-8.14696086 138.08408231-89.34040125 189.86561317-72.90839547 30.93083443-20.71261235 94.86376453-40.18246795 111.98619075-42.9441496 0 0-99.42053925 20.2983601-108.25792054 31.06891853-15.46541722-1.10467265-84.36937428 8.5612131-192.21304256 74.84157261-34.3829365 7.59462453-88.09764451 20.43644418-193.31771522 120.40931976z" fill="#E4840D" p-id="2483"></path><path d="M461.73739404 247.57029716c-5.79953147-8.42312903 121.09974018 88.09764451 149.40697705 97.90161435 24.30279849 18.08901478 97.07310987 60.61891214 112.95277933 69.18012524 0 0-66.55652767-18.22709886-117.50955404-59.92849171 0 0-115.99062914-65.17568685-144.85020234-107.15324788zM250.88300035 331.38733512c-5.79953147-8.42312903 121.09974018 88.09764451 149.40697707 97.90161436 24.30279849 18.08901478 97.07310987 60.61891214 112.95277933 69.18012523 0 0-66.55652767-18.22709886-117.50955405-59.92849174-0.13808409-0.13808409-116.12871322-65.17568685-144.85020235-107.15324785z" fill="#E4840D" p-id="2484"></path><path d="M465.32758018 329.03990572c-21.817285 8.5612131-42.1156451 21.12686459-59.23807131 37.14461814-3.86635431 3.59018613-7.87079269 8.00887677-7.31845636 13.2560719 0.55233633 5.5233633 5.79953147 9.11354943 10.63247434 11.87523107 11.87523108 6.62803595 24.30279849 12.42756741 37.00653406 17.2605103 5.66144737 2.07126124 11.59906291 4.14252247 17.67476252 4.55677472 11.737147 0.96658859 23.19812583-3.31401797 34.24485242-7.59462454 11.737147-4.55677472 23.75046215-9.25163351 33.83060016-16.98434212s18.08901478-19.05560336 18.91751929-31.62125485c-25.26938706-14.63691274-53.02428761-24.85513482-81.74577673-30.24041403-1.10467265-0.27616816-2.20934532 0.69042042-3.17593389 1.38084084-0.96658859 0.69042042-2.48551348 0.96658859-3.1759339 0s1.79509307-1.65700898 1.38084083-0.55233634M269.80051965 434.39806052c-25.68363931 5.24719513-45.01541083 25.8217234-62.55208928 45.29157899 7.18037229 5.66144737 15.74158539 9.66588576 24.71705072 11.46097883 6.35186779 1.38084082 12.84181965 1.51892491 19.33177151 1.79509308 10.63247434 0.41425225 21.12686459 0.8285045 31.75933894 1.24275674 7.59462453 0.27616816 15.32733314 0.55233633 22.92195765-0.96658858 9.94205392-2.07126124 18.91751926-7.18037229 27.75490056-12.28948333 5.66144737-3.31401797 12.28948332-8.42312903 11.04672658-14.91308088-0.96658859-4.69485881-5.79953147-7.45654045-10.21822209-9.52780168-21.95536909-10.21822208-45.56774717-16.70817396-69.73246156-19.4698556M374.88250627 272.97776831c-12.42756741-1.24275675-25.26938706 2.76168163-34.65910465 11.04672658-9.3897176 8.28504494-15.18924905 20.43644418-15.46541723 33.00209567 4.97102697 2.48551348 11.04672658 1.93317715 16.57008988 1.24275674 7.59462453-0.96658859 15.32733314-1.93317715 22.92195767-2.89976573 9.66588576-1.24275675 19.46985561-2.48551348 28.58340504-6.2137837 9.80396985-4.00443838 18.22709886-10.49439025 26.51214379-16.98434213 5.10911105-3.86635431 10.63247434-10.08013802 7.73270862-15.74158537-1.93317715-3.86635431-6.76612003-4.97102697-11.04672658-5.6614474-15.32733314-2.62359757-31.48317076-5.24719513-46.39625167-0.69042039 1.24275675 0 2.62359757 0 3.86635431 0.13808408M655.6074456 270.49225482c-10.08013802 0.8285045-20.16027601 1.79509307-30.10232995 2.62359757-7.7327086 0.69042042-16.43200579 1.93317715-20.57452825 8.42312901 15.18924905 16.01775355 31.89742302 30.5165822 49.98643778 43.22031777 2.07126124 1.51892491 4.41869063 3.0378498 6.90420412 3.31401798 2.20934532 0.27616816 4.41869063-0.27616816 6.48995187-0.8285045 20.98878051-5.5233633 41.83947694-11.18481067 62.69017336-17.12242621 0.13808409-5.24719513-4.28060655-9.25163351-8.42312902-12.56565148-10.21822208-8.00887677-21.26494868-15.74158539-34.10676833-18.36518295-6.07569962-1.24275675-12.42756741-1.24275675-18.6413511-2.48551349-6.07569962-1.24275675-12.28948332-4.00443838-15.74158539-9.3897176M779.6069515 375.29807329c-11.18481067-5.5233633-24.30279849 1.38084082-34.65910465 8.42312903-0.96658859 0.69042042-2.07126124 1.51892491-2.07126123 2.76168163 0 1.24275675 1.24275675 2.07126124 2.3474294 2.76168166 11.87523108 6.90420412 24.30279849 13.11798782 37.83503855 15.05116497 12.70373557 1.79509307 25.68363931-0.13808409 38.38737488-2.20934533 4.28060655-0.69042042 9.3897176-2.20934532 10.35630616-6.35186777-9.80396985-6.2137837-19.6079397-12.28948332-29.54999361-18.50326704-5.66144737-3.59018613-11.46097883-7.18037229-17.95093069-8.14696085-6.62803595-1.10467265-14.08457639 1.10467265-17.53667846 6.76612004M530.50326702 464.08613821c17.53667845-13.80840823 37.14461813-24.85513482 57.99531458-33.00209568 8.00887677-3.0378498 16.57008987-5.79953147 25.13130299-4.28060653 7.87079269 1.38084082 14.63691274 6.2137837 20.9887805 10.77055841 12.28948332 8.83738127 24.57896666 17.81284661 37.00653405 26.65022788-30.5165822 7.59462453-61.03316438 15.32733314-91.54974655 22.92195766-3.31401797 0.8285045-6.62803595 1.65700898-10.08013802 1.38084082-4.14252247-0.27616816-8.14696086-2.07126124-11.87523108-4.14252245-11.59906291-6.2137837-22.36962133-13.9464923-31.89742302-22.92195767 0.41425225-0.8285045 0.69042042-1.51892491 1.10467267-2.34742939" fill="#FDA233" p-id="2485"></path><path d="M464.08482343 354.72354504c-4.14252247 4.28060655-8.28504494 8.5612131-12.56565148 12.84181965-1.65700898 1.79509307-3.45210207 3.59018613-4.41869063 5.79953146-0.96658859 2.20934532-0.8285045 5.10911105 0.96658858 6.9042041 2.20934532 2.20934532 5.79953147 1.65700898 8.83738127 1.93317715 5.24719513 0.41425225 9.94205392 3.1759339 14.7749968 5.24719514 4.83294288 2.07126124 10.63247434 3.1759339 15.18924906 0.41425223 2.3474294-1.38084082 4.00443838-3.72827022 5.52336327-5.93761553 2.89976573-4.28060655 5.93761554-8.42312903 8.83738128-12.70373557 0.96658859-1.24275675 1.79509307-2.76168163 1.51892491-4.41869064-0.41425225-1.93317715-2.62359757-2.76168163-4.55677472-3.31401798-10.21822208-2.89976573-20.43644418-5.79953147-30.51658219-8.5612131" fill="#F97120" p-id="2486"></path></svg>