<?xml version="1.0" standalone="no"?><!DOCTYPE svg PUBLIC "-//W3C//DTD SVG 1.1//EN" "http://www.w3.org/Graphics/SVG/1.1/DTD/svg11.dtd"><svg t="1628243216190" class="icon" viewBox="0 0 1024 1024" version="1.1" xmlns="http://www.w3.org/2000/svg" p-id="6484" xmlns:xlink="http://www.w3.org/1999/xlink" width="200" height="200"><defs><style type="text/css"></style></defs><path d="M778.415804 550.381938a9.031044 9.031044 0 0 0 9.031045-9.031044V146.242709a9.031044 9.031044 0 0 0-9.031045-9.031044H551.134525a9.031044 9.031044 0 0 0-9.031044 9.031044c0 46.889182-38.147131 85.042333-85.042333 85.042333S372.018815 193.131891 372.018815 146.242709a9.031044 9.031044 0 0 0-9.031045-9.031044h-117.403574a9.031044 9.031044 0 0 0-9.031045 9.031044v731.514582a9.031044 9.031044 0 0 0 9.031045 9.031044h152.775164a9.031044 9.031044 0 0 0 9.031045-9.031044c0-37.141675 30.217874-67.359548 67.359548-67.359549s67.359548 30.217874 67.359548 67.359549a9.031044 9.031044 0 0 0 9.031045 9.031044h227.281279a9.031044 9.031044 0 0 0 9.031044-9.031044v-187.394168a9.031044 9.031044 0 0 0-9.031044-9.031044c-36.100094 0-65.475071-29.374976-65.475071-65.475071s29.368956-65.475071 65.46905-65.47507z" p-id="6485"></path><path d="M694.878645 615.857008c0 43.017874 32.680339 78.53396 74.506115 83.055504v169.813734H559.695955c-4.527563-42.867357-40.898589-76.390593-84.946002-76.390592s-80.418438 33.517215-84.946002 76.390592H254.61524V155.273754h99.726811c4.599812 52.638946 48.906115 94.073377 102.719097 94.073377s98.119285-41.434431 102.719097-94.073377h209.604515v377.527751c-41.825776 4.521543-74.506115 40.04365-74.506115 83.055503z" fill="#FFCC66" p-id="6486"></path><path d="M588.011289 328.368768c-39.423518 0-71.495767 32.072248-71.495767 71.495766S548.58777 471.360301 588.011289 471.360301s71.495767-32.072248 71.495767-71.495767-32.072248-71.495767-71.495767-71.495766z" p-id="6487"></path><path d="M588.011289 453.298213c-29.465287 0-53.433678-23.968391-53.433678-53.433679s23.968391-53.433678 53.433678-53.433678 53.433678 23.968391 53.433678 53.433678-23.968391 53.433678-53.433678 53.433679z" fill="#FFFFFF" p-id="6488"></path><path d="M390.080903 548.124177c-38.183255 0-69.238006 31.060771-69.238006 69.238006s31.054751 69.238006 69.238006 69.238005 69.238006-31.060771 69.238006-69.238005-31.054751-69.238006-69.238006-69.238006z" p-id="6489"></path><path d="M390.080903 668.5381c-28.225024 0-51.175917-22.956914-51.175917-51.175917s22.956914-51.175917 51.175917-51.175918 51.175917 22.956914 51.175917 51.175918-22.950894 51.175917-51.175917 51.175917z" fill="#FFFFFF" p-id="6490"></path></svg>