<?xml version="1.0" standalone="no"?><!DOCTYPE svg PUBLIC "-//W3C//DTD SVG 1.1//EN" "http://www.w3.org/Graphics/SVG/1.1/DTD/svg11.dtd"><svg t="1628243136383" class="icon" viewBox="0 0 1024 1024" version="1.1" xmlns="http://www.w3.org/2000/svg" p-id="3809" xmlns:xlink="http://www.w3.org/1999/xlink" width="200" height="200"><defs><style type="text/css"></style></defs><path d="M546.7 494.6m-200 0a200 200 0 1 0 400 0 200 200 0 1 0-400 0Z" fill="#FFDA00" p-id="3810"></path><path d="M497.7 730.9c-24.4 0-48.6-4-72-11.9-56.7-19.2-102.5-59.4-128.9-113-26.5-53.7-30.5-114.4-11.3-171.1 30.9-91 116.1-152.1 212.1-152.1 24.4 0 48.6 4 72 11.9 56.7 19.2 102.5 59.4 128.9 113 26.5 53.7 30.5 114.4 11.3 171.1-30.8 91-116.1 152.1-212.1 152.1z m0-400.1c-75.4 0-142.4 48-166.7 119.5-31.2 91.9 18.2 192 110.2 223.2 18.4 6.2 37.4 9.4 56.5 9.4 75.4 0 142.4-48 166.7-119.5 15.1-44.5 12-92.3-8.8-134.4-20.8-42.2-56.8-73.7-101.3-88.8-18.4-6.3-37.5-9.4-56.6-9.4z" fill="#EF4848" p-id="3811"></path><path d="M402.8 439.5c-4 0-8.1-1.4-11.3-4.3-7-6.2-7.6-17-1.4-24 10.3-11.6 22.4-21.4 35.9-29.2 8.1-4.7 18.5-1.9 23.2 6.3 4.7 8.1 1.9 18.5-6.3 23.2-10.3 5.9-19.6 13.4-27.5 22.3-3.3 3.8-8 5.7-12.6 5.7zM416.2 621.3c-3.8 0-7.7-1.3-10.9-4-22-18.4-37.9-42.8-45.9-70.5-8.2-28.3-7.5-58.2 2-86.2 3-8.9 12.7-13.7 21.6-10.6 8.9 3 13.7 12.7 10.6 21.6-14.5 42.7-1 90.8 33.6 119.7 7.2 6 8.2 16.7 2.1 23.9-3.4 4-8.2 6.1-13.1 6.1z" fill="#EF4848" p-id="3812"></path><path d="M546.7 914.3c-55 0-112.5-30.3-175.8-92.5-51.4-50.5-99.2-57.5-145.4-64.3-53.6-7.9-109-16-143-96-11.2-26.4-12.5-52.3-3.9-79.2 7.1-22 19.7-41.3 31.8-60 20-30.7 37.3-57.3 29.6-91-12.7-55.7-15.8-102.7-9.5-143.7 8-52.4 31.6-93.8 70.1-123.1 48.3-36.8 97.9-54.6 151.5-54.6 42 0 85.6 10.8 137.3 33.9 24.4 10.9 46.9 16.2 68.6 16.2 31.4 0 56.9-10.9 83.8-22.3 25.5-10.9 51.9-22.1 82-22.1 22 0 43.3 6 65 18.2 39.7 22.4 64 60.2 74.4 115.6 8.5 44.9 6.7 94.8 5 143.1-0.4 12.9-0.9 25-1.1 37-0.4 19.7 16.4 45.6 34.1 72.9C925.1 539 952 580.5 951 627.7c-0.8 40.9-17.8 73.1-50.4 95.7-26.3 18.2-59.4 27.8-88.6 36.3-27.5 8-53.5 15.6-65.5 27.5-7.1 7-14.4 14.4-21.5 21.6-24.4 24.8-49.6 50.5-77.6 70.2-33.8 23.7-66.7 35.3-100.7 35.3zM352.1 157.7c-42.7 0-82.8 14.7-122.4 44.9-53 40.3-67.1 111.6-42.9 218 12.2 53.6-13.5 93.1-36.2 127.9-24 36.9-38.1 61.1-24 94.2 23.5 55.2 54.5 59.8 105.9 67.4 48.8 7.2 109.6 16.1 172.1 77.6 53.9 53 100.4 78.7 142.2 78.7 54.4 0 98-44.3 144-91.1 7.2-7.3 14.6-14.9 22-22.2 20.7-20.4 52.4-29.6 85.8-39.4 64.3-18.7 103.4-33.9 104.5-86.9 0.6-32.5-21.1-65.9-42-98.3-21.8-33.7-42.5-65.6-41.8-100 0.2-12.4 0.7-25.3 1.1-37.8 3.1-88.7 6.3-180.5-55.1-215.2-14.3-8.1-27.8-12-41.3-12-20.3 0-40.2 8.5-63.2 18.3C632 194.1 599.4 208 558.2 208c-28.7 0-57.5-6.7-88.2-20.4-45.5-20.4-82.9-29.9-117.9-29.9z" fill="#EF4848" p-id="3813"></path></svg>