<?xml version="1.0" standalone="no"?><!DOCTYPE svg PUBLIC "-//W3C//DTD SVG 1.1//EN" "http://www.w3.org/Graphics/SVG/1.1/DTD/svg11.dtd"><svg t="1628243239411" class="icon" viewBox="0 0 1024 1024" version="1.1" xmlns="http://www.w3.org/2000/svg" p-id="7151" xmlns:xlink="http://www.w3.org/1999/xlink" width="200" height="200"><defs><style type="text/css"></style></defs><path d="M305.5 960.4c-12.4 0-24.7-3.3-35.7-9.6-15.1-8.7-26.2-22.5-31.8-38.3-16.5 3.1-34 0.4-49.1-8.3-16.6-9.6-28.4-25-33.4-43.5s-2.4-37.8 7.2-54.4c18.6-32.3 58.7-44.6 91.9-29.4l57-98.8c5.7-9.9 18.4-13.3 28.3-7.6l60.1 34.7c4.8 2.7 8.2 7.3 9.7 12.6 1.4 5.3 0.7 11-2.1 15.7l-57.3 99.2c11.9 9.5 20.5 22.5 24.5 37.5 5 18.5 2.4 37.8-7.2 54.4s-25 28.4-43.5 33.4c-6.1 1.6-12.4 2.4-18.6 2.4zM255 862.3c3.6 0 7.1 0.9 10.4 2.8 7.1 4.1 11.1 12.1 10.2 20.3-1.3 12 4.5 23.6 14.9 29.6 7 4 15.1 5.1 22.9 3 7.8-2.1 14.3-7.1 18.4-14.1 4-7 5.1-15.1 3-23-2.1-7.8-7.1-14.3-14.1-18.4-1.7-1-3.5-1.8-5.5-2.4-5.9-2-10.5-6.5-12.7-12.3-2.2-5.8-1.7-12.3 1.4-17.7l57.4-99.4-24.2-14-58 100.4c-3.3 5.6-9 9.4-15.4 10.2-6.5 0.8-12.9-1.5-17.4-6.2-2.4-2.5-4.4-4.1-6.5-5.3-14.4-8.3-33-3.4-41.3 11.1-4 7-5.1 15.1-3 23 2.1 7.8 7.1 14.3 14.1 18.4 10.4 6 23.4 5.3 33.1-1.9 3.6-2.8 7.9-4.1 12.3-4.1z" fill="" p-id="7152"></path><path d="M725.1 225c-136.2-78.6-268.3-104.8-295-58.4-1.1 2-2 4.1-2.7 6.3L292.1 407.2c-68.4 118.5-27.8 270 90.7 338.4l63.4 36.6c118.5 68.4 270 27.8 338.4-90.7l138.7-240.3c26.7-46.3-62-147.6-198.2-226.2z" fill="#FF7155" p-id="7153"></path><path d="M517.3 782.3c-47 0-93.3-12.3-135.1-36.4l-63.4-36.6C256 673 211.1 614.5 192.4 544.6c-18.7-70-9.1-143 27.1-205.7L358.2 98.6c6.5-11.2 20.8-15 32-8.6 11.2 6.5 15 20.8 8.6 32L260.1 362.3c-61.8 107.1-25 244.5 82.1 306.3l63.4 36.6c51.9 30 112.3 37.9 170.2 22.4C633.6 712.1 682 675 711.9 623.2l138.7-240.3c6.5-11.2 20.8-15 32-8.6 11.2 6.5 15 20.8 8.6 32L752.5 646.6c-36.2 62.7-94.7 107.6-164.6 126.3-23.4 6.3-47.1 9.4-70.6 9.4z" fill="" p-id="7154"></path><path d="M812.4 440.9c-14.8 0-32.2-1.7-52.5-5.8-58.2-11.5-127.7-39.5-195.7-78.8-132.5-76.4-246.1-189.7-206.6-258.1 13-22.5 46.3-45.7 131.2-28.9 58.2 11.5 127.7 39.5 195.7 78.8 68 39.3 127 85.5 166 130.1 57.1 65.2 53.6 105.6 40.6 128.1-9.8 17.1-31.5 34.6-78.7 34.6zM436.2 110.3c-21.6 0-34.4 4.8-38.1 11.3-5.8 10.1 2.8 36.9 35.3 74 35.8 40.9 90.6 83.6 154.3 120.4 63.7 36.8 128.1 62.8 181.4 73.4 48.4 9.6 75.9 3.7 81.7-6.4 5.8-10.1-2.8-36.9-35.3-74-35.8-40.9-90.6-83.6-154.3-120.4-63.7-36.8-128.1-62.8-181.4-73.4-17.2-3.5-31.8-4.9-43.6-4.9z" fill="" p-id="7155"></path><path d="M607.120981 282.240819a101.6 34.6 30 1 0 34.6-59.928958 101.6 34.6 30 1 0-34.6 59.928958Z" fill="#FFFFFF" p-id="7156"></path><path d="M691.5 333.8c-6.3 0-13.4-0.7-21.5-2.3-22.2-4.4-48.6-15-74.2-29.7s-47.9-32.3-62.8-49.4c-25.9-29.6-23-50.1-16.1-62.1 6.9-12 23.3-24.8 61.9-17.1 22.2 4.4 48.6 15 74.2 29.7 25.6 14.8 47.9 32.3 62.8 49.4 25.9 29.6 23 50.1 16.1 62.1-5.5 9.4-16.9 19.4-40.4 19.4zM561.4 215.9c7.8 11 26.5 29.3 56.9 46.8 30.4 17.5 55.5 24.6 69 25.9-7.8-11-26.5-29.3-56.9-46.8s-55.5-24.6-69-25.9z" fill="" p-id="7157"></path><path d="M527.5 692.6c-9.6 0-18.2-6.7-20.3-16.4-2.4-11.2 4.8-22.2 16-24.6 58-12.2 90.1-57.7 90.4-58.1 6.5-9.4 19.4-11.7 28.8-5.2 9.4 6.5 11.7 19.4 5.2 28.8-1.7 2.4-42 59.5-115.9 75.1-1.4 0.2-2.8 0.4-4.2 0.4z" fill="" p-id="7158"></path></svg>