<?xml version="1.0" standalone="no"?><!DOCTYPE svg PUBLIC "-//W3C//DTD SVG 1.1//EN" "http://www.w3.org/Graphics/SVG/1.1/DTD/svg11.dtd"><svg t="1628243270343" class="icon" viewBox="0 0 1430 1024" version="1.1" xmlns="http://www.w3.org/2000/svg" p-id="8735" xmlns:xlink="http://www.w3.org/1999/xlink" width="279.296875" height="200"><defs><style type="text/css"></style></defs><path d="M345.217452 991.268659c-86.083427 0-164.589548-28.869043-221.067476-81.304651C64.300719 854.402557 32.731341 777.729391 32.731341 688.225539v-140.744765h65.462682c0 70.617868 24.286655 130.71261 70.241457 173.770688 44.18731 41.388781 106.376858 64.18616 175.243599 64.18616a346.493975 346.493975 0 0 0 77.786032-9.132044C618.916925 730.743551 705.033083 721.464216 1079.725108 705.360396c73.400032-3.993224 135.147707-25.02311 178.631293-60.831197s68.048458-84.790539 73.350935-145.801758l0.163656-1.914783 0.392777-1.882052q0.523701-2.520313 0.998305-5.089724l64.906249 6.038933v112.923126c0 44.334601-7.93735 85.985233-23.615662 123.773565a278.069107 278.069107 0 0 1-66.346428 96.557456c-56.527026 53.33572-135.835065 82.695733-223.276842 82.712098h-3.944126c-9.132044-0.098194-18.411379-0.130925-27.543424-0.130925a2809.985616 2809.985616 0 0 0-617.378552 69.488637 421.43238 421.43238 0 0 1-90.845837 10.064887z" fill="#FF6252" p-id="8736"></path><path d="M1365.436983 495.879815v112.923126c0 163.656704-118.99479 270.262682-280.507592 270.262682h-3.616813c-9.279335-0.098194-18.575036-0.147291-27.82164-0.147292A2838.085472 2838.085472 0 0 0 428.862394 949.208886a387.489979 387.489979 0 0 1-83.644942 9.393895C188.20521 958.537318 65.462682 855.122647 65.462682 688.241905v-140.744766c0 166.193383 122.186096 270.688189 278.216397 270.688189a378.668883 378.668883 0 0 0 85.101487-9.966693c198.024612-45.692952 286.693815-54.448586 652.515646-70.126898 162.625667-8.771999 270.688189-94.446284 283.011539-236.500303q0.589164-2.847627 1.129232-5.744351M1301.070801 483.834681c-0.278216 1.505642-0.572798 3.011283-0.883747 4.484194l-0.785552 3.764104-0.327313 3.829567c-4.500559 51.928272-25.219498 93.431613-61.551287 123.364424-37.919258 31.323893-93.120665 49.78437-159.417995 53.352085-180.807927 7.757328-297.020553 13.91082-392.923382 24.106633-100.485217 10.703148-175.472719 25.563177-271.048234 47.624101a313.877194 313.877194 0 0 1-70.372383 8.297395c-60.552981 0-114.788813-19.638805-152.871728-55.332332C151.644302 660.682116 130.925364 608.802941 130.925364 547.497139H0v140.744766c0 49.391593 8.968387 95.837366 26.72514 138.028065a309.851239 309.851239 0 0 0 75.167524 107.669746c62.549592 58.065399 148.927601 90.011187 243.324788 90.011187a453.803676 453.803676 0 0 0 97.784881-10.915902h0.261851a2776.992424 2776.992424 0 0 1 610.177657-68.735816c9.03385 0 18.18226 0 27.199744 0.130925h4.287806c47.689564 0 93.006105-7.839156 134.722199-23.304714a325.365894 325.365894 0 0 0 111.024709-68.326675 310.620425 310.620425 0 0 0 74.120121-107.784305c17.314879-41.797922 26.185073-87.654531 26.185073-136.309669V495.879815L1301.070801 483.834681z" fill="#434E52" p-id="8737"></path><path d="M285.72824 953.071184c-127.406744-22.911939-220.167365-120.025827-220.101901-265.123861v-140.744766c0 68.473965 20.735304 126.490267 56.068786 171.021256 5.040626 115.312514 70.143264 198.253732 164.033115 234.847371z" fill="#FF8080" p-id="8738"></path><path d="M1366.026147 497.074509v112.923126c0 153.575451-104.838485 256.941026-251.278504 269.067988C1218.767844 848.707304 1291.251398 765.913377 1301.659965 650.551766c36.004475-38.262938 58.065399-88.014576 63.23695-147.732907q0.589164-2.847627 1.129232-5.74435z" fill="#E54C4C" p-id="8739"></path><path d="M343.679079 850.933035c-85.526994 0-163.656704-29.081796-220.003707-81.828352a279.018315 279.018315 0 0 1-66.87013-96.557456c-15.972894-38.132012-24.073901-80.191785-24.073901-125.050088v-79.651718c0-94.413553 37.068244-193.507687 101.761739-271.882883 67.541122-81.828352 156.652198-132.889244 250.934825-143.837878a2816.531884 2816.531884 0 0 1 660.109317 0c93.873486 10.899537 182.591785 62.009525 249.756497 143.936072 63.727921 77.736935 101.221672 176.585584 102.874604 271.211891a360.142944 360.142944 0 0 1-1.24379 37.133706c-6.775388 78.064248-40.292281 144.0179-96.933867 190.660061-54.383123 44.79284-129.386991 70.961547-216.910596 75.691225h-0.360044c-369.56957 15.858335-454.147355 24.924916-646.443983 69.341346a412.120313 412.120313 0 0 1-92.596964 10.834074z" fill="#FFFFFF" p-id="8740"></path><path d="M715.458015 65.462682a2783.636887 2783.636887 0 0 1 326.24964 19.180566c180.218763 20.915327 320.603484 203.81806 323.729328 383.202173a325.545917 325.545917 0 0 1-1.129232 33.729647c-12.32335 142.054019-120.385872 227.728304-283.011539 236.500304-365.821832 15.694678-454.491034 24.450312-652.433818 70.143263a378.816174 378.816174 0 0 1-85.101486 9.966693c-156.063033 0-278.216398-104.47844-278.216398-270.688189v-79.651718C65.462682 288.428576 208.989612 105.558574 389.208375 84.643248A2783.636887 2783.636887 0 0 1 715.458015 65.462682m0-65.462682a2859.982739 2859.982739 0 0 0-333.859677 19.638805c-52.84475 6.137126-104.069298 23.664759-152.200735 52.108294A456.864056 456.864056 0 0 0 109.257216 175.112674 486.74777 486.74777 0 0 0 29.458207 311.913313C9.917596 363.317884 0 415.818955 0 467.861787v79.635352c0 49.211571 8.952022 95.542784 26.61058 137.700751a311.504171 311.504171 0 0 0 74.676554 107.735209C163.656704 851.440371 249.805594 883.664376 343.679079 883.664376a444.917117 444.917117 0 0 0 99.83059-11.652357c189.841777-43.827265 273.650376-52.779287 640.585073-68.4576h0.720089c46.445773-2.503948 89.847531-10.637686 128.977849-24.188461 40.570497-14.041745 76.558606-33.860572 106.998754-58.916413 63.58063-52.370145 101.18894-126.015662 108.733514-213.097395a392.776091 392.776091 0 0 0 1.358351-40.505035 453.214512 453.214512 0 0 0-30.914752-154.999265 494.996068 494.996068 0 0 0-79.373501-136.424228C1248.046028 86.738053 1151.717692 31.520281 1049.317692 19.638805a2859.982739 2859.982739 0 0 0-333.859677-19.638805z" fill="#434E52" p-id="8741"></path><path d="M366.934697 720.793224c-54.43222 0-102.89097-17.151223-136.45696-48.327825-34.66249-32.191274-52.222854-76.345853-52.190123-131.252677v-76.133099c0-65.151734 26.054147-134.198498 71.534345-189.268979 46.052997-55.823302 107.424261-91.89324 168.370018-98.963209 21.684513-2.553045 53.286623-4.909701 93.873486-7.053604l27.21611-1.423813 6.333514 26.512386a626.903372 626.903372 0 0 0 27.82164 88.554643l74.496532-118.847499 17.57673-0.441873c27.003356-0.670992 53.744862-1.21106 79.45533-1.636567h2.094806A140.057408 140.057408 0 0 1 887.019338 302.470321v218.056193a139.353684 139.353684 0 0 1-125.541058 138.748154 2843.698897 2843.698897 0 0 0-331.568483 54.415855 292.667285 292.667285 0 0 1-62.926003 7.102701z" fill="#FF6252" p-id="8742"></path><path d="M747.043759 195.291545A107.178776 107.178776 0 0 1 854.287997 302.470321v218.056193A106.900559 106.900559 0 0 1 758.04149 626.805178a2867.265463 2867.265463 0 0 0-335.398051 55.03775 259.641362 259.641362 0 0 1-55.643279 6.300783c-46.134825 0-86.738053-14.058111-114.166917-39.572191s-41.765191-61.813137-41.73246-107.244239v-76.247658c0-121.105961 100.534314-242.899281 210.953492-255.713601 22.502797-2.651239 54.824996-4.909701 91.811411-6.889947 23.681125 99.192329 56.117884 148.207512 56.117884 148.207511l96.410165-153.837302c27.70708-0.687358 54.612242-1.227425 79.128017-1.636567h1.636567m0-65.462682h-2.585776c-25.825028 0.37641-52.664728 0.916478-79.782644 1.636567l-35.15346 0.883747-18.787789 29.850982L582.617868 207.271216q-2.585776-9.573917-5.089724-19.982483L564.795653 134.198498l-54.43222 2.847626c-41.274221 2.160268-73.645517 4.598753-96.033754 7.233627C378.046987 148.583922 342.451654 161.152757 308.492888 181.658942a332.22311 332.22311 0 0 0-83.923158 73.269107 354.611347 354.611347 0 0 0-57.148921 97.146619 310.636791 310.636791 0 0 0-21.880902 112.923126v76.133099c0 63.449704 21.635416 117.129103 62.647787 155.228385 39.637654 36.806393 96.001023 57.067093 158.747003 57.067092a325.169506 325.169506 0 0 0 69.832316-7.839156h0.294582a2811.06575 2811.06575 0 0 1 327.722551-53.777593A172.363241 172.363241 0 0 0 919.750679 520.526514V302.470321A172.82148 172.82148 0 0 0 747.043759 129.828864z" fill="#434E52" p-id="8743"></path><path d="M1105.140994 597.756113a123.888125 123.888125 0 0 1-122.562506-123.52808v-130.696245A122.006073 122.006073 0 0 1 1021.136008 253.667892a126.506633 126.506633 0 0 1 85.739747-34.138789 121.269618 121.269618 0 0 1 81.828352 32.09308c52.893847 48.278728 84.463225 118.912961 84.44686 188.958031 0 65.757264-29.850983 102.874604-54.890459 122.415215-28.705386 22.404603-67.966629 34.744318-110.550104 34.744318z" fill="#FFFFFF" p-id="8744"></path><path d="M1106.875755 252.27681a87.719994 87.719994 0 0 1 59.734697 23.533834c48.213265 43.990922 73.792808 107.015119 73.776443 164.785936 0 91.745949-68.555794 124.379095-132.709222 124.379095h-2.258463a90.813105 90.813105 0 0 1-90.011187-90.796739v-130.647148c0-54.334026 44.776474-91.254978 91.549561-91.254978m0-65.462682a159.565287 159.565287 0 0 0-108.160716 43.025348 154.410101 154.410101 0 0 0-48.851527 113.692312v130.696245a156.275787 156.275787 0 0 0 155.031996 156.259421h2.79853c49.849832 0 96.279239-14.729103 130.696244-41.666997A168.893719 168.893719 0 0 0 1287.978264 526.369059c11.83238-25.415886 17.822215-54.268563 17.822215-85.772479 0-79.07892-35.546236-158.747003-95.117276-213.130126a153.919131 153.919131 0 0 0-103.856545-40.63596z" fill="#434E52" p-id="8745"></path></svg>