<?xml version="1.0" standalone="no"?><!DOCTYPE svg PUBLIC "-//W3C//DTD SVG 1.1//EN" "http://www.w3.org/Graphics/SVG/1.1/DTD/svg11.dtd"><svg t="1628255180709" class="icon" viewBox="0 0 1024 1024" version="1.1" xmlns="http://www.w3.org/2000/svg" p-id="13060" xmlns:xlink="http://www.w3.org/1999/xlink" width="200" height="200"><defs><style type="text/css"></style></defs><path d="M64 192v640a32 32 0 0 0 32 32h832a32 32 0 0 0 32-32V192a32 32 0 0 0-32-32H96a32 32 0 0 0-32 32z m840 616H120V216h784z" fill="#1F61C1" p-id="13061"></path><path d="M904 314.07v56h-93a28 28 0 0 1 0-56zM718.08 342.07a28 28 0 0 1-28 28H120v-56h570.08a28 28 0 0 1 28 28z" fill="#FFB640" p-id="13062"></path><path d="M538.25 648A20.21 20.21 0 0 1 518 627.8V503.2a20.21 20.21 0 0 1 40.41 0v124.6a20.2 20.2 0 0 1-20.16 20.2zM661.19 483h-36.64a16 16 0 0 0-16 16v128.31c0 11 8.52 20.29 19.47 20.68A20.21 20.21 0 0 0 649 627.8v-37.89h13a53.52 53.52 0 0 0 53.45-54.28C715 506.29 690.53 483 661.19 483z m0.44 66.51H649v-26.1h13a13.06 13.06 0 0 1 13 13.7 13.31 13.31 0 0 1-13.37 12.4zM416.6 648a20.21 20.21 0 0 0 18.77-12.73l48.46-124.17a20.2 20.2 0 0 0-37.53-15l-29.7 77.06-29.7-77.06a20.2 20.2 0 0 0-37.54 15l48.47 124.17A20.2 20.2 0 0 0 416.6 648z" fill="#1F61C1" p-id="13063"></path></svg>