<?xml version="1.0" standalone="no"?><!DOCTYPE svg PUBLIC "-//W3C//DTD SVG 1.1//EN" "http://www.w3.org/Graphics/SVG/1.1/DTD/svg11.dtd"><svg t="1628243247663" class="icon" viewBox="0 0 1024 1024" version="1.1" xmlns="http://www.w3.org/2000/svg" p-id="7369" xmlns:xlink="http://www.w3.org/1999/xlink" width="200" height="200"><defs><style type="text/css"></style></defs><path d="M516.096 524.288m-460.8 0a460.8 460.8 0 1 0 921.6 0 460.8 460.8 0 1 0-921.6 0Z" fill="#FFFFFF" p-id="7370"></path><path d="M516.096 524.288m-389.12 0a389.12 389.12 0 1 0 778.24 0 389.12 389.12 0 1 0-778.24 0Z" fill="#F6F6F6" p-id="7371"></path><path d="M432.128 718.848l-26.624-34.816-57.344-88.064-10.24 8.192 6.144 10.24-2.048 4.096 53.248 73.728 108.544 165.888 8.192-6.144 8.192 10.24 8.192-10.24-22.528-30.72 6.144-2.048-167.936-256-10.24 8.192zM348.3648 567.23456l10.28096-6.7584L525.9264 815.7184l-10.26048 6.7584zM423.936 567.296l-14.336-22.528-12.288 6.144 16.384 24.576 26.624 47.104-53.248-81.92-12.288 8.192 143.36 215.04 34.816 67.584 14.336-2.048-16.384-32.768 2.048-2.048-22.528-34.816-26.624-47.104 61.44 92.16 10.24-6.144-147.456-227.328z" fill="#E59C44" p-id="7372"></path><path d="M357.64224 550.58432l10.28096-6.73792 167.28064 255.24224-10.28096 6.71744z" fill="#E59C44" p-id="7373"></path><path d="M352.256 581.632l-10.24 6.144 34.816 53.248-18.432-26.624-10.24 12.288 178.176 243.712 8.192-10.24-6.144-8.192 10.24-6.144-165.888-253.952-10.24 6.144-10.24-16.384z m165.888 256zM409.6 548.864l4.096 8.192H409.6l55.296 100.352-67.584-102.4-10.24 8.192L542.72 798.72l10.24 20.48 14.336-2.048-4.096-6.144h2.048l-10.24-16.384-75.776-137.216 96.256 145.408 10.24-6.144-165.888-256zM376.832 575.488l-8.192 4.096 165.888 256 10.24-8.192-14.336-20.48 10.24-6.144-167.936-253.952-10.24 6.144z" fill="#FFCA43" p-id="7374"></path><path d="M319.488 495.616l-26.624-36.864-57.344-86.016-10.24 6.144 8.192 12.288-4.096 2.048 55.296 75.776 108.544 165.888 8.192-6.144 6.144 10.24 8.192-12.288-20.48-28.672 4.096-4.096-165.888-253.952-12.288 6.144zM237.09696 341.34016l10.28096-6.7584L414.65856 589.824l-10.26048 6.73792zM313.344 342.016l-16.384-22.528-10.24 6.144 16.384 26.624 24.576 47.104-53.248-81.92-10.24 6.144 141.312 217.088 36.864 65.536h14.336l-18.432-32.768 2.048-2.048-22.528-34.816-24.576-47.104 59.392 92.16 10.24-8.192-147.456-227.328z" fill="#E59C44" p-id="7375"></path><path d="M245.76 327.51616l10.30144-6.71744 167.28064 255.22176-10.28096 6.73792z" fill="#E59C44" p-id="7376"></path><path d="M239.616 356.352l-10.24 6.144 34.816 53.248-18.432-24.576-8.192 10.24 178.176 243.712 8.192-10.24-6.144-8.192 10.24-6.144-165.888-253.952-10.24 6.144-12.288-16.384z m165.888 256zM296.96 323.584l4.096 8.192h-4.096l55.296 100.352-65.536-100.352-12.288 6.144L430.08 575.488l10.24 18.432h14.336l-2.048-8.192-10.24-16.384-73.728-137.216 94.208 145.408 12.288-6.144L307.2 317.44zM264.192 350.208l-8.192 6.144 165.888 253.952 12.288-6.144-14.336-22.528 8.192-6.144-165.888-253.952-12.288 6.144z" fill="#FFCA43" p-id="7377"></path><path d="M507.904 653.312l-24.576-34.816-57.344-88.064-12.288 8.192 8.192 10.24-4.096 4.096 55.296 73.728 108.544 165.888 8.192-6.144 6.144 10.24 8.192-10.24-20.48-30.72 4.096-4.096-165.888-253.952-10.24 8.192zM425.12384 499.38432l10.28096-6.73792 167.28064 255.24224-10.26048 6.73792zM501.76 501.76l-16.384-24.576-10.24 8.192 16.384 24.576 24.576 47.104-53.248-81.92-10.24 8.192L593.92 698.368l36.864 67.584 14.336-2.048-18.432-32.768 4.096-2.048-24.576-34.816-24.576-47.104 59.392 92.16 12.288-6.144-149.504-227.328z" fill="#E59C44" p-id="7378"></path><path d="M433.80736 485.5808l10.28096-6.73792 167.28064 255.24224-10.28096 6.71744z" fill="#E59C44" p-id="7379"></path><path d="M428.032 516.096l-10.24 6.144 34.816 53.248-18.432-26.624-8.192 10.24 178.176 243.712 8.192-10.24-6.144-8.192 10.24-6.144L450.56 524.288l-10.24 6.144-12.288-14.336zM593.92 770.048zM485.376 483.328l6.144 6.144-4.096 2.048 55.296 100.352-67.584-102.4-10.24 8.192 153.6 235.52 12.288 20.48 14.336-2.048-4.096-6.144v-2.048l-10.24-14.336-73.728-137.216 94.208 145.408 12.288-8.192-167.936-253.952zM454.656 507.904l-10.24 6.144 167.936 256 10.24-8.192-14.336-20.48 8.192-6.144L450.56 479.232l-10.24 8.192z" fill="#FFCA43" p-id="7380"></path><path d="M319.488 673.792l-26.624-34.816-57.344-88.064-10.24 8.192 8.192 10.24-4.096 4.096 55.296 73.728 108.544 165.888 8.192-6.144 6.144 10.24 8.192-10.24-20.48-30.72 4.096-4.096-165.888-253.952-12.288 8.192zM236.72832 519.63904l10.28096-6.7584 167.28064 255.24224-10.28096 6.73792zM313.344 522.24l-16.384-24.576-10.24 8.192 16.384 24.576 24.576 47.104-53.248-81.92-10.24 6.144 141.312 217.088 36.864 67.584 14.336-2.048-18.432-32.768 2.048-2.048-22.528-34.816-24.576-47.104 59.392 92.16 10.24-6.144-147.456-227.328z" fill="#E59C44" p-id="7381"></path><path d="M245.39136 505.81504l10.28096-6.71744 167.28064 255.22176-10.28096 6.73792z" fill="#E59C44" p-id="7382"></path><path d="M239.616 536.576l-10.24 6.144 34.816 53.248-18.432-26.624-8.192 10.24 178.176 243.712 8.192-10.24-6.144-8.192 10.24-6.144-165.888-253.952-10.24 6.144-12.288-14.336z m165.888 253.952zM296.96 503.808l4.096 6.144-4.096 2.048 55.296 100.352-65.536-102.4-12.288 8.192L430.08 753.664l10.24 20.48 14.336-2.048-2.048-6.144v-2.048l-10.24-14.336-73.728-139.264 94.208 147.456 12.288-8.192L307.2 495.616zM264.192 528.384l-8.192 6.144 165.888 253.952 12.288-6.144-14.336-22.528 8.192-4.096-165.888-256-12.288 8.192z" fill="#FFCA43" p-id="7383"></path><path d="M258.048 585.728l-24.576-34.816-57.344-88.064-10.24 8.192 6.144 10.24-2.048 4.096 53.248 73.728 108.544 165.888 8.192-4.096 8.192 8.192 8.192-10.24-22.528-30.72 6.144-2.048L172.032 430.08l-10.24 8.192zM176.2304 433.9712l10.28096-6.73792 167.28064 255.22176-10.28096 6.7584zM251.904 434.176l-14.336-22.528-12.288 6.144 16.384 24.576 26.624 47.104-53.248-81.92-12.288 8.192 141.312 215.04 36.864 67.584 14.336-2.048-16.384-32.768h2.048l-22.528-36.864-26.624-47.104 61.44 92.16 10.24-6.144-149.504-227.328z" fill="#E59C44" p-id="7384"></path><path d="M185.48736 417.32096l10.28096-6.73792 167.28064 255.24224-10.28096 6.73792z" fill="#E59C44" p-id="7385"></path><path d="M180.224 448.512l-10.24 6.144 34.816 53.248-20.48-24.576-8.192 10.24L354.304 737.28l8.192-10.24-6.144-8.192 10.24-6.144-165.888-256-10.24 6.144-10.24-14.336z m165.888 256zM235.52 415.744l6.144 8.192h-4.096l55.296 100.352-67.584-102.4-10.24 8.192 155.648 235.52 10.24 20.48 14.336-2.048-4.096-6.144h2.048l-10.24-16.384-75.776-137.216 96.256 145.408 10.24-6.144-165.888-256z" fill="#FFCA43" p-id="7386"></path><path d="M204.8 442.368l-10.24 6.144 167.936 253.952 10.24-8.192-14.336-20.48 10.24-6.144-167.936-253.952-10.24 6.144z" fill="#FFCA43" p-id="7387"></path><path d="M555.008 471.04l-24.576-34.816-57.344-86.016-12.288 6.144 8.192 10.24-4.096 4.096 55.296 75.776 108.544 163.84 8.192-4.096 6.144 8.192 8.192-10.24-20.48-28.672 6.144-4.096-167.936-253.952-10.24 6.144zM472.8832 319.0784l10.26048-6.7584 167.28064 255.24224-10.28096 6.73792zM548.864 319.488l-16.384-22.528-10.24 6.144 16.384 24.576 26.624 47.104-55.296-79.872-10.24 6.144 141.312 217.088 36.864 65.536h14.336l-18.432-32.768 4.096-2.048-24.576-36.864-24.576-47.104 59.392 94.208 12.288-8.192-149.504-227.328z" fill="#E59C44" p-id="7388"></path><path d="M481.54624 305.2544l10.26048-6.73792 167.30112 255.24224-10.28096 6.73792z" fill="#E59C44" p-id="7389"></path><path d="M475.136 333.824l-10.24 6.144 34.816 53.248-18.432-24.576-8.192 10.24 178.176 243.712 8.192-10.24-6.144-8.192 10.24-6.144-165.888-253.952-10.24 6.144-12.288-16.384z m167.936 256zM532.48 301.056l6.144 8.192h-4.096l55.296 100.352-67.584-100.352-10.24 6.144 153.6 235.52 12.288 20.48h14.336l-4.096-8.192-10.24-16.384-73.728-137.216 96.256 145.408 10.24-6.144-167.936-253.952zM501.76 327.68l-10.24 6.144 167.936 253.952 10.24-8.192-14.336-20.48 10.24-6.144-167.936-253.952-10.24 6.144z" fill="#FFCA43" p-id="7390"></path><path d="M401.408 731.136L376.832 696.32l-57.344-86.016-10.24 6.144 6.144 10.24-2.048 4.096 53.248 75.776 108.544 163.84 8.192-4.096 6.144 8.192 10.24-10.24-22.528-28.672 6.144-4.096-167.936-253.952-10.24 6.144zM319.30368 579.3792l10.28096-6.73792 167.28064 255.22176-10.26048 6.7584zM395.264 579.584l-14.336-22.528-12.288 6.144 16.384 24.576 26.624 47.104-55.296-79.872-10.24 6.144L487.424 778.24l36.864 65.536h14.336l-16.384-32.768 2.048-2.048-22.528-36.864-26.624-47.104 61.44 94.208 10.24-8.192-149.504-227.328z" fill="#E59C44" p-id="7391"></path><path d="M329.68704 564.44928l10.28096-6.73792 167.28064 255.22176-10.28096 6.7584z" fill="#E59C44" p-id="7392"></path><path d="M323.584 593.92l-10.24 6.144 34.816 53.248-20.48-24.576-8.192 10.24 178.176 243.712 8.192-10.24-6.144-8.192 10.24-6.144-165.888-253.952-10.24 6.144-10.24-16.384z m165.888 256zM378.88 561.152l6.144 8.192h-4.096l55.296 100.352-67.584-100.352-10.24 6.144L512 811.008l12.288 20.48h14.336l-4.096-8.192h2.048l-10.24-16.384-75.776-137.216 96.256 145.408 10.24-6.144-165.888-253.952zM348.16 587.776l-10.24 6.144 167.936 253.952 10.24-8.192-14.336-20.48 10.24-6.144-167.936-253.952-10.24 6.144z" fill="#FFCA43" p-id="7393"></path><path d="M395.264 456.704l-24.576-34.816-57.344-88.064-10.24 8.192 6.144 10.24-2.048 4.096 53.248 73.728 108.544 165.888 8.192-6.144 8.192 10.24 8.192-10.24-22.528-30.72 6.144-2.048-167.936-256-10.24 8.192zM313.48736 304.9472l10.28096-6.7584 167.28064 255.24224-10.26048 6.73792zM389.12 305.152l-14.336-22.528-12.288 6.144 16.384 24.576 26.624 47.104-53.248-81.92-12.288 8.192 141.312 215.04 36.864 67.584 14.336-2.048-16.384-32.768 2.048-2.048-22.528-34.816-26.624-47.104 61.44 92.16 10.24-6.144-149.504-227.328z" fill="#E59C44" p-id="7394"></path><path d="M322.7648 288.29696l10.26048-6.7584L500.3264 536.7808l-10.28096 6.7584z" fill="#E59C44" p-id="7395"></path><path d="M317.44 319.488l-12.288 8.192 34.816 53.248-18.432-26.624-8.192 10.24L491.52 608.256l8.192-10.24-6.144-8.192 10.24-6.144L337.92 327.68l-10.24 8.192-10.24-16.384z m165.888 256zM372.736 286.72l6.144 8.192h-4.096l55.296 100.352-67.584-102.4-10.24 8.192 155.648 235.52 10.24 20.48 14.336-2.048-4.096-6.144h2.048l-10.24-16.384-75.776-137.216 96.256 145.408 10.24-6.144-165.888-256zM342.016 313.344l-8.192 4.096L499.712 573.44l10.24-8.192-14.336-20.48 10.24-6.144-167.936-253.952-10.24 6.144z" fill="#FFCA43" p-id="7396"></path><path d="M595.968 618.496l-24.576-34.816-57.344-88.064-12.288 8.192 8.192 10.24-4.096 4.096 55.296 73.728 108.544 165.888 8.192-6.144 6.144 10.24 8.192-10.24-20.48-30.72 4.096-2.048-165.888-256-10.24 8.192zM514.12992 466.3296l10.28096-6.7584 167.28064 255.24224-10.28096 6.73792zM589.824 466.944l-16.384-22.528-10.24 6.144 16.384 24.576 24.576 47.104-53.248-81.92-10.24 8.192 141.312 215.04 36.864 67.584 14.336-2.048-18.432-32.768 4.096-2.048-24.576-34.816-24.576-47.104 59.392 92.16 12.288-6.144L591.872 471.04z" fill="#E59C44" p-id="7397"></path><path d="M521.68704 450.80576l10.28096-6.7584 167.28064 255.24224-10.28096 6.73792z" fill="#E59C44" p-id="7398"></path><path d="M516.096 481.28l-10.24 6.144 34.816 53.248-18.432-26.624-8.192 10.24 178.176 243.712 8.192-10.24-6.144-8.192 10.24-6.144-165.888-253.952-10.24 6.144-12.288-14.336zM681.984 737.28zM573.44 448.512l6.144 8.192h-4.096l55.296 100.352-67.584-102.4-10.24 8.192 153.6 235.52 12.288 20.48 14.336-2.048-4.096-6.144-10.24-16.384-73.728-137.216 94.208 145.408 12.288-6.144-167.936-256zM542.72 475.136l-10.24 4.096 167.936 256 10.24-8.192-14.336-20.48 8.192-6.144-165.888-253.952-10.24 6.144z" fill="#FFCA43" p-id="7399"></path><path d="M530.432 483.328L491.52 425.984l-94.208-141.312-10.24 8.192 12.288 16.384-4.096 4.096 86.016 122.88 174.08 266.24 8.192-6.144 12.288 16.384 6.144-12.288-32.768-49.152 4.096-4.096-268.288-409.6-10.24 6.144zM389.38624 242.56512l10.26048-6.73792 268.32896 409.35424-10.26048 6.73792zM481.28 264.192h-2.048l-24.576-36.864-10.24 6.144 26.624 40.96 43.008 73.728-86.016-131.072-10.24 6.144 227.328 348.16 61.44 106.496 16.384 2.048-28.672-51.2 2.048-2.048-36.864-57.344-45.056-73.728 98.304 147.456 12.288-6.144-239.616-366.592z" fill="#E59C44" p-id="7400"></path><path d="M397.45536 223.37536l10.28096-6.73792L676.0448 625.99168l-10.28096 6.73792z" fill="#E59C44" p-id="7401"></path><path d="M397.312 264.192l-10.24 6.144 55.296 86.016-30.72-43.008-6.144 14.336 278.528 399.36 6.144-12.288-10.24-14.336 10.24-6.144-268.288-409.6-10.24 6.144-14.336-26.624zM665.6 675.84zM456.704 233.472l8.192 12.288h-4.096l92.16 159.744-106.496-163.84-12.288 6.144 249.856 380.928 18.432 30.72 16.384 2.048-6.144-10.24h2.048l-16.384-24.576-126.976-219.136 153.6 235.52 10.24-6.144L466.944 225.28zM425.984 262.144l-8.192 6.144 268.288 409.6 10.24-8.192-22.528-34.816 8.192-4.096-268.288-411.648-10.24 8.192z" fill="#FFCA43" p-id="7402"></path><path d="M700.416 411.648L675.84 376.832l-57.344-88.064-12.288 8.192 8.192 10.24-4.096 4.096 55.296 73.728 108.544 165.888 8.192-6.144 6.144 10.24 8.192-10.24-20.48-30.72 4.096-4.096L614.4 256l-10.24 8.192zM617.6768 257.76128l10.28096-6.73792L795.2384 506.2656l-10.28096 6.73792zM694.272 260.096l-16.384-24.576-10.24 8.192 16.384 24.576 24.576 47.104-53.248-81.92-10.24 8.192 141.312 215.04 36.864 67.584 14.336-2.048-18.432-32.768 4.096-2.048-24.576-34.816-24.576-47.104 59.392 92.16 12.288-6.144L696.32 264.192z" fill="#E59C44" p-id="7403"></path><path d="M626.33984 243.95776l10.28096-6.73792 167.28064 255.24224-10.26048 6.73792z" fill="#E59C44" p-id="7404"></path><path d="M620.544 274.432l-10.24 6.144 34.816 53.248-18.432-26.624-8.192 10.24 178.176 243.712 8.192-10.24-6.144-6.144 10.24-6.144-165.888-253.952-10.24 6.144-12.288-16.384z m165.888 253.952zM677.888 241.664l6.144 6.144-4.096 2.048 55.296 100.352-67.584-102.4-10.24 8.192L811.008 491.52l12.288 20.48 14.336-2.048-4.096-6.144v-2.048l-10.24-14.336-73.728-137.216 96.256 145.408 10.24-8.192-167.936-253.952zM647.168 266.24l-10.24 6.144 167.936 256 10.24-8.192-14.336-20.48 8.192-6.144-165.888-256-10.24 8.192z" fill="#FFCA43" p-id="7405"></path><path d="M606.208 489.472l-43.008-61.44-98.304-151.552-10.24 8.192 10.24 18.432-2.048 4.096 92.16 131.072 188.416 286.72 8.192-6.144 10.24 18.432 8.192-14.336-36.864-51.2 6.144-4.096L448.512 225.28l-10.24 8.192zM454.656 230.74816l10.28096-6.73792 288.54272 440.17664-10.28096 6.7584zM548.864 258.048h-2.048l-26.624-40.96-10.24 8.192 28.672 43.008 47.104 79.872-94.208-143.36-10.24 8.192 245.76 374.784 67.584 112.64 16.384 4.096-32.768-55.296 4.096-2.048-40.96-61.44-47.104-79.872 104.448 159.744 10.24-8.192L552.96 264.192z" fill="#E59C44" p-id="7406"></path><path d="M460.22656 210.57536l10.28096-6.73792 288.54272 440.17664-10.28096 6.7584z" fill="#E59C44" p-id="7407"></path><path d="M464.896 256l-10.24 6.144 59.392 92.16-32.768-45.056-6.144 12.288 299.008 430.08 6.144-12.288-10.24-14.336 10.24-6.144L491.52 274.432l-10.24 6.144-16.384-24.576z m286.72 440.32zM522.24 225.28l8.192 12.288h-4.096l100.352 169.984-114.688-176.128-12.288 8.192 268.288 407.552 20.48 34.816 18.432 2.048-8.192-10.24 2.048-2.048-18.432-26.624-137.216-233.472 165.888 253.952 10.24-8.192L532.48 217.088z" fill="#FFCA43" p-id="7408"></path><path d="M491.52 253.952l-8.192 4.096 288.768 442.368 10.24-8.192L757.76 655.36l10.24-6.144-288.768-440.32-12.288 6.144z" fill="#FFCA43" p-id="7409"></path><path d="M733.184 540.672l-24.576-34.816-57.344-88.064-10.24 8.192 6.144 10.24-2.048 4.096 53.248 73.728 108.544 165.888 8.192-6.144 8.192 10.24 8.192-10.24-22.528-30.72 6.144-2.048-167.936-256-10.24 8.192zM651.50976 388.93568l10.28096-6.73792 167.28064 255.22176-10.28096 6.7584zM727.04 389.12l-14.336-22.528-12.288 6.144 16.384 24.576 26.624 47.104-53.248-81.92-12.288 8.192L819.2 585.728l36.864 67.584 14.336-2.048-16.384-32.768 2.048-2.048-22.528-34.816-26.624-47.104 61.44 92.16 10.24-6.144-149.504-227.328z" fill="#E59C44" p-id="7410"></path><path d="M660.76672 372.28544l10.28096-6.73792 167.28064 255.24224-10.28096 6.73792z" fill="#E59C44" p-id="7411"></path><path d="M655.36 403.456l-10.24 6.144 34.816 53.248-18.432-26.624-8.192 10.24 178.176 243.712 8.192-10.24-6.144-8.192 10.24-6.144L675.84 411.648l-10.24 6.144-10.24-14.336z m165.888 256zM710.656 370.688l6.144 8.192h-4.096l55.296 100.352-67.584-102.4-10.24 8.192 155.648 235.52 10.24 20.48 14.336-2.048-4.096-6.144h2.048l-10.24-16.384-75.776-137.216 96.256 145.408 10.24-6.144-165.888-256z" fill="#FFCA43" p-id="7412"></path><path d="M679.936 397.312l-8.192 4.096 165.888 256 10.24-8.192-14.336-20.48 10.24-6.144L675.84 368.64l-10.24 6.144z" fill="#FFCA43" p-id="7413"></path><path d="M612.352 354.304l-24.576-34.816-57.344-86.016-12.288 6.144 8.192 10.24-4.096 4.096 55.296 75.776 108.544 163.84 8.192-4.096 6.144 10.24 10.24-12.288-22.528-28.672 6.144-4.096-167.936-253.952-10.24 6.144zM530.1248 202.40384l10.28096-6.73792 167.28064 255.24224-10.28096 6.71744zM606.208 202.752l-16.384-22.528-10.24 6.144 16.384 26.624 26.624 47.104-55.296-81.92-10.24 6.144 141.312 217.088 36.864 65.536h14.336l-18.432-32.768 4.096-2.048-24.576-34.816-24.576-49.152 59.392 94.208 12.288-8.192-149.504-227.328zM538.80832 188.60032l10.26048-6.73792 167.30112 255.22176-10.28096 6.7584z" fill="#E59C44" p-id="7414"></path><path d="M534.528 217.088l-12.288 8.192 34.816 53.248-18.432-26.624-8.192 10.24 178.176 243.712 8.192-10.24-6.144-8.192 10.24-6.144L552.96 227.328l-10.24 6.144-8.192-16.384z m165.888 256zM589.824 184.32l6.144 8.192h-4.096l55.296 100.352-67.584-100.352-10.24 6.144 153.6 237.568 12.288 18.432h14.336l-4.096-8.192h2.048L737.28 430.08l-75.776-137.216 96.256 145.408 10.24-6.144-165.888-253.952z" fill="#FFCA43" p-id="7415"></path><path d="M559.104 210.944l-10.24 6.144L716.8 471.04l10.24-6.144-14.336-22.528 10.24-6.144-167.936-253.952-10.24 6.144z" fill="#FFCA43" p-id="7416"></path><path d="M382.976 385.024l6.144-4.096 8.192 10.24-6.144 4.096-8.192-10.24zM466.944 407.552l8.192-10.24 4.096 4.096-8.192 10.24-4.096-4.096zM372.736 458.752l8.192-10.24 4.096 4.096-8.192 10.24-4.096-4.096zM452.608 479.232l2.048-6.144 12.288 4.096-2.048 6.144-12.288-4.096zM448.512 428.032l4.096-4.096 4.096 4.096-4.096 4.096-4.096-4.096zM409.6 430.08l4.096-4.096 4.096 4.096-4.096 4.096-4.096-4.096zM471.04 446.464l4.096-4.096 2.048 2.048-4.096 6.144-2.048-4.096zM436.224 382.976l6.144-2.048 2.048 4.096-6.144 2.048-2.048-4.096zM442.368 514.048l2.048-6.144h4.096l-2.048 6.144h-4.096zM405.504 473.088l4.096-4.096 2.048 2.048-4.096 4.096-2.048-2.048z" fill="#00893D" p-id="7417"></path><path d="M524.288 333.824l6.144-4.096 8.192 10.24-6.144 4.096-8.192-10.24zM608.256 356.352l8.192-10.24 4.096 4.096-6.144 10.24-6.144-4.096zM514.048 407.552l8.192-10.24 4.096 4.096-8.192 10.24-4.096-4.096zM595.968 428.032l2.048-6.144 12.288 4.096-2.048 6.144-12.288-4.096zM591.872 376.832l4.096-4.096 4.096 4.096-4.096 4.096-4.096-4.096zM550.912 380.928l4.096-4.096 4.096 4.096-4.096 4.096-4.096-4.096zM612.352 397.312l4.096-4.096 2.048 2.048-4.096 4.096-2.048-2.048zM577.536 331.776l6.144-2.048 2.048 4.096-6.144 2.048-2.048-4.096zM585.728 464.896l2.048-6.144h4.096l-2.048 6.144h-4.096zM548.864 423.936l4.096-4.096 2.048 2.048-4.096 4.096-2.048-2.048z" fill="#00893D" p-id="7418"></path><path d="M499.712 471.04l6.144-4.096 8.192 10.24-6.144 4.096-8.192-10.24zM583.68 495.616l8.192-10.24 4.096 4.096-8.192 10.24-4.096-4.096zM489.472 544.768l8.192-10.24 4.096 4.096-8.192 10.24-4.096-4.096zM571.392 567.296l2.048-6.144 12.288 4.096-2.048 6.144-12.288-4.096zM567.296 514.048l4.096-4.096 4.096 4.096-4.096 4.096-4.096-4.096zM526.336 518.144l4.096-4.096 4.096 4.096-4.096 4.096-4.096-4.096zM589.824 534.528l4.096-4.096 2.048 2.048-4.096 4.096-2.048-2.048zM552.96 468.992l6.144-2.048 2.048 4.096-6.144 2.048-2.048-4.096zM561.152 602.112l2.048-6.144h4.096l-2.048 6.144h-4.096zM524.288 561.152l4.096-4.096 2.048 2.048-4.096 4.096-2.048-2.048z" fill="#00893D" p-id="7419"></path><path d="M618.496 452.608l6.144-4.096 8.192 10.24-6.144 4.096-8.192-10.24zM702.464 475.136l8.192-10.24 4.096 4.096-8.192 10.24-4.096-4.096zM608.256 526.336l8.192-10.24 4.096 4.096-6.144 10.24-6.144-4.096zM690.176 546.816l2.048-6.144 12.288 4.096-2.048 6.144-12.288-4.096zM686.08 495.616l4.096-4.096 4.096 4.096-4.096 4.096-4.096-4.096zM645.12 497.664l4.096-4.096 4.096 4.096-4.096 4.096-4.096-4.096zM708.608 514.048l4.096-4.096 2.048 2.048-4.096 4.096-2.048-2.048zM671.744 450.56l6.144-2.048 2.048 4.096-6.144 2.048-2.048-4.096zM679.936 581.632l2.048-6.144h4.096l-2.048 6.144h-4.096zM643.072 540.672l4.096-4.096 2.048 2.048-4.096 4.096-2.048-2.048z" fill="#00893D" p-id="7420"></path><path d="M366.592 516.096l6.144-4.096 8.192 10.24-6.144 4.096-8.192-10.24zM450.56 538.624l8.192-10.24 4.096 4.096-8.192 10.24-4.096-4.096zM356.352 589.824l8.192-10.24 4.096 4.096-8.192 10.24-4.096-4.096zM436.224 610.304l2.048-6.144 12.288 4.096-2.048 6.144-12.288-4.096zM432.128 559.104l4.096-4.096 4.096 4.096-4.096 4.096-4.096-4.096zM391.168 563.2l4.096-4.096 4.096 4.096-4.096 4.096-4.096-4.096zM454.656 579.584l4.096-4.096 2.048 2.048-4.096 4.096-2.048-2.048zM419.84 514.048l6.144-2.048 2.048 4.096-6.144 2.048-2.048-4.096zM425.984 645.12l2.048-6.144h4.096l-2.048 8.192-4.096-2.048zM389.12 606.208l4.096-4.096 2.048 2.048-4.096 4.096-2.048-2.048z" fill="#00893D" p-id="7421"></path><path d="M477.184 600.064l6.144-4.096 8.192 10.24-6.144 4.096-8.192-10.24zM561.152 622.592l8.192-10.24 4.096 4.096-8.192 10.24-4.096-4.096zM466.944 671.744l8.192-10.24 4.096 4.096-6.144 10.24-6.144-4.096zM548.864 694.272l2.048-6.144 12.288 4.096-2.048 6.144-12.288-4.096zM544.768 643.072l4.096-4.096 4.096 4.096-4.096 4.096-4.096-4.096zM503.808 645.12l4.096-4.096 4.096 4.096-4.096 4.096-4.096-4.096zM567.296 661.504l4.096-4.096 2.048 2.048-4.096 4.096-2.048-2.048zM530.432 598.016l6.144-2.048 2.048 4.096H532.48l-2.048-2.048zM538.624 729.088l2.048-6.144h4.096l-2.048 6.144h-4.096zM501.76 688.128l4.096-4.096 2.048 2.048-4.096 4.096-2.048-2.048z" fill="#00893D" p-id="7422"></path><path d="M514.048 319.488c-6.144-2.048-12.288 2.048-12.288 8.192 0 4.096 4.096 10.24 10.24 10.24 6.144 2.048 12.288-2.048 12.288-8.192 0-4.096-4.096-10.24-10.24-10.24z m-4.096 14.336c-4.096 0-6.144-4.096-6.144-8.192s4.096-6.144 8.192-4.096c4.096 0 6.144 4.096 6.144 8.192 0 2.048-4.096 4.096-8.192 4.096zM493.568 565.248c-4.096 0-8.192 0-8.192 2.048s2.048 4.096 6.144 6.144c4.096 0 8.192 0 8.192-2.048s-2.048-4.096-6.144-6.144z m-2.048 8.192c-2.048 0-4.096-2.048-4.096-4.096s2.048-2.048 4.096-2.048 4.096 2.048 4.096 4.096c0 0-2.048 2.048-4.096 2.048zM397.312 493.568c-6.144-2.048-12.288 4.096-12.288 10.24-2.048 6.144 4.096 12.288 10.24 12.288 6.144 2.048 12.288-4.096 12.288-10.24s-4.096-12.288-10.24-12.288z m-2.048 18.432c-4.096 0-6.144-4.096-6.144-8.192s4.096-6.144 8.192-6.144 6.144 4.096 6.144 8.192-4.096 6.144-8.192 6.144zM555.008 524.288c-6.144-2.048-12.288 4.096-12.288 10.24-2.048 6.144 4.096 12.288 10.24 12.288 6.144 2.048 12.288-4.096 12.288-10.24s-4.096-12.288-10.24-12.288z m-4.096 18.432c-4.096 0-6.144-4.096-6.144-8.192s4.096-6.144 8.192-6.144 6.144 4.096 6.144 8.192-4.096 6.144-8.192 6.144zM444.416 653.312c-6.144-2.048-12.288 4.096-12.288 10.24-2.048 6.144 4.096 12.288 10.24 12.288 6.144 2.048 12.288-4.096 12.288-10.24s-4.096-12.288-10.24-12.288z m-2.048 18.432c-4.096 0-6.144-4.096-6.144-8.192s4.096-6.144 8.192-6.144 6.144 4.096 6.144 8.192-4.096 6.144-8.192 6.144zM729.088 487.424c-6.144 0-12.288 4.096-12.288 10.24-2.048 6.144 4.096 12.288 10.24 12.288 6.144 2.048 12.288-4.096 12.288-10.24 0-4.096-4.096-10.24-10.24-12.288z m-4.096 18.432c-4.096 0-6.144-4.096-6.144-8.192s4.096-6.144 8.192-6.144 6.144 4.096 6.144 8.192-4.096 8.192-8.192 6.144z" fill="#C10F10" p-id="7423"></path></svg>