<?xml version="1.0" standalone="no"?><!DOCTYPE svg PUBLIC "-//W3C//DTD SVG 1.1//EN" "http://www.w3.org/Graphics/SVG/1.1/DTD/svg11.dtd"><svg t="1628243160035" class="icon" viewBox="0 0 1024 1024" version="1.1" xmlns="http://www.w3.org/2000/svg" p-id="4765" xmlns:xlink="http://www.w3.org/1999/xlink" width="200" height="200"><defs><style type="text/css"></style></defs><path d="M253.287 252.512l232.501 0 0 50.599-232.501 0 0-50.599Z" fill="#F15A24" p-id="4766"></path><path d="M471.732 313.056H267.343c-13.565 0-24.601-10.408-24.601-23.2v-24.088c0-12.792 11.036-23.2 24.601-23.2h204.39c13.564 0 24.6 10.408 24.6 23.2v24.087c0 12.793-11.036 23.201-24.6 23.201z m-204.389-50.6a3.463 3.463 0 0 0-3.511 3.312v24.087a3.463 3.463 0 0 0 3.511 3.312h204.39a3.463 3.463 0 0 0 3.51-3.312v-24.087a3.463 3.463 0 0 0-3.51-3.311z" fill="" p-id="4767"></path><path d="M223.479 306.585l289.136 0 0 548.157-289.136 0 0-548.157Z" fill="#F15A24" p-id="4768"></path><path d="M494.444 864.687H241.65c-15.833 0-28.716-12.15-28.716-27.08V323.721c0-14.932 12.883-27.08 28.716-27.08h252.794c15.833 0 28.716 12.148 28.716 27.08v513.884c0 14.932-12.883 27.08-28.716 27.08zM241.65 316.53a7.427 7.427 0 0 0-7.626 7.192v513.884a7.427 7.427 0 0 0 7.626 7.192h252.794a7.427 7.427 0 0 0 7.626-7.192V323.722a7.427 7.427 0 0 0-7.626-7.192z" fill="" p-id="4769"></path><path d="M223.479 464.004h289.136v193.963H223.479z" fill="#ED1C24" p-id="4770"></path><path d="M523.16 667.912H212.934V454.06H523.16z m-289.136-19.89H502.07V473.95H234.024z" fill="" p-id="4771"></path><path d="M368.174 95.875l-40.55 152.207a0.76 0.76 0 0 0 0.734 0.956h81.101a0.76 0.76 0 0 0 0.734-0.956l-40.55-152.207a0.76 0.76 0 0 0-1.469 0z" fill="#E6E7E8" p-id="4772"></path><path d="M405.311 258.982h-72.806a14.781 14.781 0 0 1-11.474-5.285 13.028 13.028 0 0 1-2.636-11.783l36.4-136.636a14.785 14.785 0 0 1 28.227 0l36.402 136.639a13.034 13.034 0 0 1-2.638 11.78 14.781 14.781 0 0 1-11.475 5.285z m-64.42-19.889h56.035L368.908 133.93z m24.132-131.392z" fill="#231F20" p-id="4773"></path><path d="M244.867 421.469l15.553 0 0 347.24-15.553 0 0-347.24Z" fill="#FFFFFF" p-id="4774"></path><path d="M244.867 390.191a9.838 9.278 0 1 0 19.676 0 9.838 9.278 0 1 0-19.676 0Z" fill="#FFFFFF" p-id="4775"></path><path d="M579.926 336.282l221.853 0 0 48.282-221.853 0 0-48.282Z" fill="#FBB03B" p-id="4776"></path><path d="M787.722 394.509H593.983c-13.565 0-24.601-10.408-24.601-23.203v-21.769c0-12.792 11.036-23.2 24.601-23.2h193.739c13.565 0 24.602 10.408 24.602 23.2v21.769c0 12.795-11.037 23.203-24.602 23.203z m-193.739-48.283a3.463 3.463 0 0 0-3.511 3.311v21.769a3.463 3.463 0 0 0 3.511 3.314h193.739a3.463 3.463 0 0 0 3.512-3.314v-21.769a3.463 3.463 0 0 0-3.512-3.311z" fill="" p-id="4777"></path><path d="M691.337 187.936l-39.267 147.39a0.76 0.76 0 0 0 0.734 0.956h78.535a0.76 0.76 0 0 0 0.734-0.956l-39.267-147.39a0.76 0.76 0 0 0-1.469 0z" fill="#E6E7E8" p-id="4778"></path><path d="M727.191 346.226h-70.239a14.787 14.787 0 0 1-11.474-5.283 13.037 13.037 0 0 1-2.64-11.783l35.122-131.824a14.785 14.785 0 0 1 28.224 0l35.12 131.824a13.037 13.037 0 0 1-2.638 11.783 14.787 14.787 0 0 1-11.475 5.283z m-61.854-19.89h53.47L692.07 225.989z m33.074-124.144l-0.002 0.01 0.002-0.01z" fill="#231F20" p-id="4779"></path><path d="M754.466 854.742h-127.46a31.706 31.706 0 0 1-26.054-13.166c-26.643-38.131-75.913-123.286-71.03-238.057 4.74-111.41 57.896-189.241 80.65-218.956h166.19c23.403 34.063 66.988 107.765 73.318 209.737 6.947 111.913-34.693 198.036-61.18 241.611-7.081 11.65-20.194 18.83-34.434 18.83z" fill="#FBB03B" p-id="4780"></path><path d="M754.468 864.687H627.006c-14.113 0-27.145-6.594-34.86-17.641-29.267-41.888-77.639-129.277-72.76-243.924 4.564-107.3 53.734-186.638 82.637-224.38l3.16-4.122h177.313l3.118 4.537c30.93 45.018 69.047 118.787 74.994 214.564 6.711 108.15-30.315 194.087-62.557 247.136-8.939 14.698-25.637 23.83-43.583 23.83zM616.013 394.509c-27.789 37.394-71.37 111.073-75.553 209.41C535.818 713 581.883 796.21 609.757 836.102a20.916 20.916 0 0 0 17.249 8.695h127.462a29.586 29.586 0 0 0 25.286-13.832c30.816-50.704 66.21-132.82 59.8-236.084-5.481-88.293-39.624-157.028-68.569-200.373z" fill="" p-id="4781"></path><path d="M602.87 545.764l175.965 0 0 149.295-175.965 0 0-149.295Z" fill="#F15A24" p-id="4782"></path><path d="M767.07 705.003H614.636c-12.301 0-22.31-9.44-22.31-21.04V556.859c0-11.6 10.009-21.04 22.31-21.04H767.07c12.3 0 22.31 9.44 22.31 21.04v127.104c0 11.6-10.01 21.04-22.31 21.04zM614.636 555.708a1.19 1.19 0 0 0-1.22 1.15v127.105a1.19 1.19 0 0 0 1.22 1.15H767.07a1.19 1.19 0 0 0 1.22-1.15V556.859a1.19 1.19 0 0 0-1.22-1.151z" fill="" p-id="4783"></path><path d="M586.697 751.286c-3.733 0-6.786-2.502-6.786-5.56-13.677-32.49-30.035-85.062-25.119-149.946a324.521 324.521 0 0 1 25.119-102.201 5.152 5.152 0 0 1 1.993-3.927 7.578 7.578 0 0 1 4.793-1.633c3.732 0 6.785 2.502 6.785 5.56a323.757 323.757 0 0 0-25.148 101.696c-5.053 65.138 11.416 117.912 25.148 150.451a7.2 7.2 0 0 1-6.785 5.56z" fill="#FFFFFF" p-id="4784"></path><path d="M593.482 453.792a9.388 8.853 0 1 0 18.776 0 9.388 8.853 0 1 0-18.776 0Z" fill="#FFFFFF" p-id="4785"></path></svg>