<?xml version="1.0" standalone="no"?><!DOCTYPE svg PUBLIC "-//W3C//DTD SVG 1.1//EN" "http://www.w3.org/Graphics/SVG/1.1/DTD/svg11.dtd"><svg t="1628255085995" class="icon" viewBox="0 0 1024 1024" version="1.1" xmlns="http://www.w3.org/2000/svg" p-id="9649" xmlns:xlink="http://www.w3.org/1999/xlink" width="200" height="200"><defs><style type="text/css"></style></defs><path d="M672.2 444.3L513.8 218.7 353.2 444.3c-92.1-77.3-248.4-131-248.4-131l54.1 263.3 40.6 250.2c1 5.9 2.6 11.5 4.8 16.8-2.2-5.3-3.8-10.9-4.8-16.8l-9.3-57.2h644.7l-9.3 57.2c-5.2 32.1-30.1 56.7-61.1 62.3 31-5.7 55.9-30.3 61.1-62.3l40.6-250.2 54.1-263.3c-0.2 0-156 53.7-248.1 131z" fill="#FFD301" p-id="9650"></path><path d="M205.1 845.9c12 26.5 38.7 44.5 69 44.5-30.3 0-57-17.9-69-44.5zM750.8 890.4c3.5 0 6.9-0.2 10.3-0.7-3.4 0.5-6.8 0.7-10.3 0.7z" fill="#0D4D90" p-id="9651"></path><path d="M122.2 319.2m-56.6 0a56.6 56.6 0 1 0 113.2 0 56.6 56.6 0 1 0-113.2 0Z" fill="#EA590A" p-id="9652"></path><path d="M902.8 319.2m-56.6 0a56.6 56.6 0 1 0 113.2 0 56.6 56.6 0 1 0-113.2 0Z" fill="#EA590A" p-id="9653"></path><path d="M516.3 205m-71.7 0a71.7 71.7 0 1 0 143.4 0 71.7 71.7 0 1 0-143.4 0Z" fill="#EA590A" p-id="9654"></path><path d="M554.4 769.6l150.8-174.5c14.5-16.7 14.5-43.9 0-60.7-14.5-16.7-37.9-16.7-52.4 0L512.5 696.8 372.2 534.5c-14.5-16.7-37.9-16.7-52.4 0s-14.5 43.9 0 60.7l150.8 174.5H190.1l9.3 57.2c1.1 6.7 3 13.1 5.7 19.1 12 26.5 38.7 44.5 69 44.5h476.7c3.5 0 6.9-0.2 10.3-0.7 1.1-0.2 2.2-0.3 3.3-0.5 31-5.7 55.9-30.3 61.1-62.3l9.3-57.2H554.4z" fill="#0D4D90" p-id="9655"></path></svg>