<?xml version="1.0" standalone="no"?><!DOCTYPE svg PUBLIC "-//W3C//DTD SVG 1.1//EN" "http://www.w3.org/Graphics/SVG/1.1/DTD/svg11.dtd"><svg t="1628351611793" class="icon" viewBox="0 0 1024 1024" version="1.1" xmlns="http://www.w3.org/2000/svg" p-id="1485" xmlns:xlink="http://www.w3.org/1999/xlink" width="200" height="200"><defs><style type="text/css"></style></defs><path d="M308.1 889.2l-70.4-70.4-47-47 23.5-70.4L132 595.7s59.5-72.5 82.2-93.9c73-68.9 231.5-193.9 317-246.5 52.5-32.3 223-105.7 223-105.7s55.2 2.5 70.4 11.7c12.5 7.6 30.6 33 35.2 47 2.8 8.4-3.4 27.1 0 35.2 3.2 7.7 20.3 15.8 23.5 23.5 5.6 13.6-4.3 44.7 0 58.7 3.1 10.1 19.2 25.5 23.5 35.2 4.9 11.1 6.8 35.9 11.7 47 4.3 9.7 21.7 24.8 23.5 35.2 2.1 11.9-5.4 36.6-11.7 47-50.8 83.5-293.5 258.3-293.5 258.3L355 900.9l-46.9-11.7z" fill="#FFFA76" p-id="1486"></path><path d="M392.7 706.2s86.1-101.7 162.9-151.3 276-162.8 290.9-139.7c15 23.2-115.2 121.3-186.2 162.9S433.4 701 415.9 706.2c-17.4 5.2-28 10.4-23.2 0zM322.8 578.2c-12-17.5 51.9-87.5 151.3-162.9s288-189.9 314.2-162.9-58.2 81.5-58.2 81.5S582.8 408.4 544 438.5 341.9 606 322.8 578.2z" fill="#FF903E" p-id="1487"></path><path d="M302.8 896.2c-1.6 0-3-0.1-4.3-0.3-43.1-6.2-67.8-48-82.6-73-3.5-5.9-7.4-12.5-9.3-14.4-1.9-1.9-6.8-4.3-11.5-6.6-16.2-7.9-40.7-19.8-42.8-55.5-3.2-54.3 246.9-241.3 317.9-289.3 212.6-143.8 334-191.7 382.1-151 46.3 39.2 46.7 63.9 40.8 82.8 0.6 0.5 1.4 1.1 2.1 1.7 12.3 10 41 33.6 26.7 82.7-6.3 21.7-55.9 63-136.9 128.4-43 34.7-83.6 67.4-104.2 88.7-50.8 52.8-314.6 205.8-378 205.8z m504.3-580.7c-45 0-137.3 35.2-323.7 161.3-129.4 87.5-308.5 239-307.6 268.4 1.3 21.9 15 28.6 29.6 35.6 6.7 3.3 13.1 6.4 17.9 11.1 4 4 7.7 10.3 12.9 19.1 13.4 22.7 33.7 57.1 65.6 61.6C346 878.8 612 727.8 664 674.1c21.6-22.3 62.7-55.5 106.3-90.7C822.8 541 894.7 483 899.4 466.8c9.9-34.2-6.8-47.9-19-57.9-5.3-4.3-9.5-7.7-11-13.2-1.5-5.2 0-9.8 1.2-13.5 2.6-8.1 7.5-23.3-33.4-58-6.3-5.2-15.8-8.7-30.1-8.7z" fill="#C6481C" p-id="1488"></path><path d="M277.9 810.6c-16.5 0-31.9-2-32.9-2.2-3.2-0.4-5.5-3.4-5.1-6.6 0.4-3.2 3.4-5.5 6.6-5.1 0.3 0 34.7 4.5 53.5 0.1 5-1.2 13-12.7 21.6-24.8 18.3-26.2 46-65.7 94.9-83.8 71.9-26.7 306.9-175.2 343.1-199.3 15.6-10.4 26.4-25.3 36.9-39.7 12.6-17.3 25.7-35.3 46.8-44.8 3-1.3 6.5 0 7.8 2.9 1.3 3 0 6.5-3 7.8-18.3 8.3-29.9 24.2-42.1 41-11.1 15.2-22.6 31-39.9 42.5-23.8 15.9-268.1 171.9-345.5 200.6-45.4 16.8-70.8 53.1-89.3 79.5-11.1 15.9-19.1 27.3-28.5 29.5-7.3 1.9-16.3 2.4-24.9 2.4zM346.7 722.1c-1.6 0-3.1-0.6-4.3-1.8-2.2-2.4-2.1-6.1 0.2-8.3 7-6.7 172.7-163.6 261.4-214.6 122.2-70.3 191.8-103.1 225.6-106.5 3.2-0.3 6.1 2.1 6.5 5.3 0.3 3.2-2.1 6.1-5.3 6.5-41.5 4.1-145.9 61.8-220.9 104.9-87.5 50.3-257.5 211.3-259.2 212.9-1.1 1.1-2.5 1.6-4 1.6z" fill="#C6481C" p-id="1489"></path><path d="M510.5 763.8c-3.3 0-6.9-0.7-10.7-2.2-7.8-3-15.9-8.9-22.6-16.6-15.3-17.5-18.9-37.6-8.4-46.7 5.4-4.8 13.4-5.5 22.5-2 7.8 3 15.9 8.9 22.6 16.6 6.7 7.7 11.5 16.5 13.4 24.6 2.2 9.5 0.4 17.3-5 22.1-3.2 2.8-7.2 4.2-11.8 4.2z m-29.9-57.9c-1.8 0-3.2 0.4-4.1 1.2-3.9 3.4-2.1 16.8 9.5 30.1 5.4 6.2 11.9 11.1 17.9 13.3 4.7 1.8 8.6 1.8 10.6 0.1 1.9-1.7 2.4-5.6 1.3-10.5-1.5-6.2-5.4-13.4-10.8-19.6-5.4-6.2-11.9-11.1-17.9-13.3-2.4-0.8-4.6-1.3-6.5-1.3zM726.3 402.7c-2.4 0-4.6-1.4-5.5-3.7-14.1-35.4-60.1-33.4-60.6-33.4-3.2 0.2-6-2.3-6.2-5.6-0.2-3.3 2.3-6 5.6-6.2 2.2-0.1 55-2.4 72.2 40.8 1.2 3-0.3 6.5-3.3 7.7-0.7 0.3-1.5 0.4-2.2 0.4z" fill="#C6481C" p-id="1490"></path><path d="M707.2 415.7c-2.4 0-4.6-1.4-5.5-3.7-14-35.3-58.7-33.5-60.6-33.4-2.8 0.2-6-2.3-6.2-5.6-0.2-3.3 2.3-6 5.6-6.2 2.2-0.1 55-2.4 72.2 40.8 1.2 3-0.3 6.5-3.3 7.7-0.8 0.3-1.5 0.4-2.2 0.4z" fill="#C6481C" p-id="1491"></path><path d="M682.4 428.2c-2.4 0-4.6-1.4-5.5-3.7-14-35.3-58.7-33.5-60.6-33.4-2.8 0.3-6-2.3-6.2-5.6-0.2-3.3 2.3-6 5.6-6.2 2.2-0.1 55-2.4 72.2 40.8 1.2 3-0.3 6.5-3.3 7.7-0.8 0.2-1.5 0.4-2.2 0.4z" fill="#C6481C" p-id="1492"></path><path d="M198.1 701.8c-3.3 0-6.5-1.4-8.9-4-11.9-13.5-21-28.9-27.6-40.1-3.5-5.9-7.4-12.5-9.3-14.4-1.9-1.9-6.8-4.3-11.5-6.6-16.2-7.9-40.7-19.8-42.8-55.5C94.8 527 344.9 340 415.9 291.9 628.5 148.1 749.9 100.2 798 141c46.3 39.2 46.7 63.9 40.8 82.7 0.6 0.5 1.4 1.1 2.1 1.7 12.3 10 41 33.6 26.7 82.7-1.2 4-3.5 8.3-7.3 13.5-3.9 5.2-11.3 6.4-16.5 2.5s-6.4-11.3-2.5-16.5c3-4.1 3.6-5.9 3.6-6.1 9.9-34.2-6.8-47.9-19-57.9-5.3-4.3-9.5-7.8-11-13.3-1.5-5.2 0-9.8 1.2-13.5 2.6-8.1 7.5-23.3-33.4-58-26-22-108.4-13.4-353.6 152.5-129.4 87.5-308.4 239-307.6 268.4 1.3 21.9 15 28.6 29.6 35.7 6.7 3.3 13.1 6.4 17.9 11.1 4 4 7.7 10.3 12.9 19.1 6.5 11 14.6 24.7 25 36.6 4.3 4.9 3.8 12.4-1.1 16.7-2.2 2-5 2.9-7.7 2.9z" fill="#C6481C" p-id="1493"></path><path d="M223.6 645.4c-16.5 0-31.9-2-32.9-2.2-3.2-0.4-5.5-3.4-5.1-6.6 0.4-3.2 3.4-5.5 6.6-5.1 0.4 0 34.7 4.5 53.5 0.1 5-1.2 13-12.7 21.6-24.8 18.3-26.2 46-65.7 94.9-83.8 72-26.7 306.9-175.2 343.1-199.3 15.6-10.4 26.4-25.3 36.9-39.6 12.6-17.3 25.7-35.3 46.8-44.8 3-1.3 6.5 0 7.8 3s0 6.5-3 7.8c-18.3 8.3-29.9 24.2-42.1 41-11.1 15.2-22.6 31-39.9 42.5-23.9 15.7-268.1 171.7-345.5 200.4-45.4 16.8-70.8 53.1-89.3 79.5-11.1 15.9-19.1 27.3-28.5 29.5-7.3 1.8-16.2 2.4-24.9 2.4z" fill="#C6481C" p-id="1494"></path><path d="M292.4 556.9c-1.6 0-3.1-0.6-4.3-1.8-2.2-2.4-2.1-6.1 0.2-8.3 7-6.7 172.7-163.6 261.4-214.6C672 261.8 741.6 229 775.4 225.6c3.2-0.2 6.1 2.1 6.5 5.3 0.3 3.2-2.1 6.1-5.3 6.5-41.5 4.1-145.9 61.8-220.9 104.9-87.5 50.3-257.5 211.3-259.2 212.9-1.2 1.1-2.6 1.7-4.1 1.7z" fill="#C6481C" p-id="1495"></path><path d="M672 237.4c-2.4 0-4.6-1.4-5.5-3.7-14-35.3-58.6-33.5-60.6-33.4-2.8 0.4-6-2.3-6.2-5.6s2.3-6 5.6-6.2c2.2-0.1 55-2.4 72.2 40.8 1.2 3-0.3 6.5-3.3 7.7-0.7 0.3-1.4 0.4-2.2 0.4z" fill="#C6481C" p-id="1496"></path><path d="M652.9 250.4c-2.4 0-4.6-1.4-5.5-3.7-14.1-35.4-60.2-33.4-60.6-33.4-3.1 0.2-6-2.3-6.2-5.6s2.3-6 5.6-6.2c2.2-0.1 55-2.4 72.2 40.8 1.2 3-0.3 6.5-3.3 7.7-0.7 0.3-1.5 0.4-2.2 0.4z" fill="#C6481C" p-id="1497"></path><path d="M628.1 262.9c-2.4 0-4.6-1.4-5.5-3.7-14-35.4-60.1-33.4-60.6-33.4-3.1 0.3-6-2.3-6.2-5.6s2.3-6 5.6-6.2c2.2-0.1 55-2.4 72.2 40.8 1.2 3-0.3 6.5-3.3 7.7-0.7 0.3-1.5 0.4-2.2 0.4z" fill="#C6481C" p-id="1498"></path></svg>